<?xml version="1.0" encoding="UTF-8"?>
<svg id="Capa_1" xmlns="http://www.w3.org/2000/svg" version="1.1" viewBox="0 0 877.4 721.6">
  <!-- Generator: Adobe Illustrator 29.5.0, SVG Export Plug-In . SVG Version: 2.1.0 Build 137)  -->
  <defs>
    <style>
      .st0 {
        fill: #060707;
      }
    </style>
  </defs>
  <path class="st0" d="M18.7,624.9h20.9c-6.9,0-13.9,0-20.9,0Z"/>
  <path class="st0" d="M872.2,555.2c-33.2-42.8-80.7-80.3-114.5-124.1-8.4-5.7-21.7-8.1-28.9,3.3-4.4,10-6.6,58.4-12.2,63.3-1.2,1-3.9,1.5-5.4,2.3l-80.2.7s0,0-.1,0c-5-.1-8.7-4.8-8-9.8L692.5,17.9c.6-11.9-3.9-15.7-15.3-16.2C640.1,0,595.5,0,567.9,1.6c-9.5.6-14.3,3.7-16.8,13.4-8,57.4-15.9,114.3-23.8,170.8-10.7,76.8-32.8,155.4-16.7,228.1,7.3,32.8,25.9,74.4,59,88-60.7-2.2-72.9-58.9-86.5-105.3-4.8-16.6-10.2-33.4-19.5-47.8-12-18.5-29-34-48.1-45.8l-26.2-15.2c52.2-20.7,83.8-59.9,94.7-112.8C505.4,71.4,445.7,7.3,343.7,1.5,262-3.2,175.5,0,92.4,1.3c-16.4.2-27,7.6-30.3,24.6L0,602.1c-.2,12.3,4.7,22.8,18.7,22.8,24.2-.1,47.1,0,69.6,0h-48.7c71.8.3,137.9,3.8,205.3.5,3.2-.1,6.3-.3,9.5-.5,64.1-3.8,104.2-29.2,154.2-68.4,1.8-1.4,1.1-4.1,3.8-3.3,31.5,38,69.3,68.5,125.1,71.8,67.4,3.9,83.1-3,151-.1,5.9-.3,9.6,2.7,8.9,8.5l-12.6,81.2c.9,5.2,6,7.5,11.7,7.2,5.4-.4,20.2-12.5,25.7-16.7,49.2-38,95.2-82.5,145.2-120.9,11.9-10.3,12.8-18.5,4.8-28.8ZM347.6,431.4c-5.1,39.2-41.9,70.8-82.3,70.8h-113.3c-4.3,0-7.4-3.7-6.8-8.1l14.7-125.9c.5-4.6,4.5-8.2,8.8-8.2h114.4c40.8,0,69.6,32.1,64.5,71.5ZM352.8,182.3c-4.1,32.3-36.2,58.4-71.7,58.4h-99.5c-3.8,0-6.5-3-6.1-6.7l12.1-103.8c.4-3.7,3.9-6.8,7.7-6.8h100.3c35.7,0,61.3,26.5,57.2,59Z"/>
</svg>