<?xml version="1.0" encoding="UTF-8"?>
<svg version="1.1" xmlns="http://www.w3.org/2000/svg" width="512" height="512">
<path d="M0 0 C2.21217742 0.86935598 3.39631481 1.87698985 5.07040846 3.55998826 C5.67331206 4.15876786 6.27621565 4.75754746 6.89738905 5.3744719 C7.54691039 6.03477906 8.19643172 6.69508622 8.86563551 7.37540269 C9.55872313 8.06805223 10.25181075 8.76070176 10.96590102 9.47434068 C13.25639278 11.76692345 15.53607398 14.06995159 17.81583083 16.37320542 C19.40129687 17.96426628 20.98742629 19.55466634 22.57419264 21.1444304 C26.74996019 25.33165561 30.91664071 29.52781168 35.08151686 33.72586656 C39.33257402 38.00760448 43.59212997 42.28086882 47.85098708 46.55484605 C56.20700148 54.9430409 64.55344423 63.34069148 72.89395583 71.74429917 C71.3858671 75.27761673 69.33834763 77.54682083 66.62927687 80.24948716 C65.73462721 81.14688615 64.83997756 82.04428514 63.9182173 82.96887803 C62.9243827 83.95563492 61.93045248 84.94229552 60.9364363 85.92886949 C59.89138999 86.97335153 58.84678412 88.0182744 57.8025862 89.06360459 C54.96841309 91.89835163 52.12811484 94.72688892 49.28668416 97.55435872 C46.31757652 100.51096583 43.35412979 103.47323576 40.39008009 106.43491197 C34.77717305 112.04160226 29.15918712 117.64317469 23.53936267 123.24293041 C17.14130014 129.61864005 10.74891412 136.00002806 4.35700071 142.3819015 C-8.79103731 155.5090331 -21.94619388 168.62900986 -35.10604417 181.74429917 C-33.59795545 185.27761673 -31.55043597 187.54682083 -28.84136522 190.24948716 C-27.94671556 191.14688615 -27.0520659 192.04428514 -26.13030565 192.96887803 C-25.13647104 193.95563492 -24.14254083 194.94229552 -23.14852464 195.92886949 C-22.10347834 196.97335153 -21.05887247 198.0182744 -20.01467454 199.06360459 C-17.18050144 201.89835163 -14.34020318 204.72688892 -11.4987725 207.55435872 C-8.52966487 210.51096583 -5.56621813 213.47323576 -2.60216844 216.43491197 C3.0107386 222.04160226 8.62872453 227.64317469 14.24854898 233.24293041 C20.64661152 239.61864005 27.03899753 246.00002806 33.43091094 252.3819015 C46.57894896 265.5090331 59.73410554 278.62900986 72.89395583 291.74429917 C68.82840912 296.62406668 64.56569307 301.21285173 60.06241286 305.68936753 C59.40804747 306.34387895 58.75368208 306.99839036 58.07948744 307.67273545 C55.93927894 309.81225331 53.795562 311.94821793 51.65176833 314.08414292 C50.15796833 315.57607572 48.66439054 317.06823103 47.17102492 318.56059861 C43.25733344 322.47048867 39.34064717 326.37736511 35.42331374 330.28360581 C31.41951495 334.27713923 27.4185777 338.27353726 23.41739333 342.2696898 C15.5790337 350.09735403 7.7375049 357.92183517 -0.10604417 365.74429917 C-3.0523971 364.41543506 -5.12966891 362.96994515 -7.4093622 360.68707681 C-8.04433759 360.05608351 -8.67931299 359.42509021 -9.33353007 358.7749759 C-10.0222494 358.08043089 -10.71096872 357.38588588 -11.42055833 356.67029405 C-12.15901546 355.93354577 -12.89747258 355.1967975 -13.65830719 354.43772352 C-16.13818045 351.96115156 -18.61082532 349.47748578 -21.08358324 346.99381089 C-22.8571202 345.21970995 -24.63109735 343.44604896 -26.40548265 341.67279649 C-30.22804788 337.85068709 -34.04752205 334.02553017 -37.86423051 330.19757295 C-43.38255306 324.66299718 -48.90638916 319.13395147 -54.43158707 313.60624041 C-63.39567453 304.63777557 -72.35528644 295.66485338 -81.31209886 286.68912339 C-90.01288049 277.96998408 -98.71575997 269.25294755 -107.42147386 260.53873277 C-107.95808217 260.00159901 -108.49469048 259.46446525 -109.04755965 258.91105472 C-111.73957552 256.21642877 -114.43163274 253.52184414 -117.12371051 250.82728004 C-139.45756935 228.47268736 -161.78409601 206.11078534 -184.10604417 183.74429917 C-182.77827506 180.80319963 -181.33356339 178.71991172 -179.05999506 176.43818784 C-178.43146855 175.80259574 -177.80294204 175.16700364 -177.15536928 174.51215118 C-176.46355275 173.82274973 -175.77173622 173.13334829 -175.05895555 172.42305589 C-174.32502954 171.6838932 -173.59110353 170.94473051 -172.83493733 170.18316895 C-170.36774381 167.70094093 -167.89342028 165.22594598 -165.41903245 162.75089097 C-163.65145582 160.97569544 -161.88428408 159.20009667 -160.11748827 157.424124 C-155.31258692 152.59725024 -150.50111535 147.77698254 -145.68774593 142.95855522 C-142.68371791 139.95127051 -139.68132579 136.94235631 -136.67928255 133.93309045 C-128.37008105 125.60432884 -120.05930702 117.27714572 -111.74177301 108.95670438 C-110.94363271 108.15828272 -110.94363271 108.15828272 -110.12936836 107.34373133 C-109.05066486 106.26466159 -107.9719601 105.18559312 -106.89325406 104.10652592 C-106.35777655 103.57086561 -105.82229905 103.03520529 -105.27059495 102.48331285 C-104.46639933 101.6788464 -104.46639933 101.6788464 -103.64595734 100.85812811 C-94.9481953 92.15682017 -86.26224753 83.4438214 -77.5814109 74.7256309 C-68.67265644 65.77884834 -59.7546274 56.84140172 -50.82698941 47.91346127 C-45.81295525 42.89884149 -40.80298182 37.88030845 -35.80309999 32.85157418 C-31.10485197 28.12633924 -26.393971 23.41397944 -21.67414796 18.7102778 C-19.93955405 16.97750952 -18.20926532 15.24041973 -16.48352373 13.49883485 C-14.13602754 11.13109857 -11.77383327 8.7791079 -9.40710008 6.43062425 C-8.71974499 5.73006919 -8.03238991 5.02951414 -7.32420588 4.30773014 C-6.37359288 3.3739001 -6.37359288 3.3739001 -5.40377557 2.42120481 C-4.5874842 1.60369175 -4.5874842 1.60369175 -3.75470209 0.76966327 C-2.10604417 -0.25570083 -2.10604417 -0.25570083 0 0 Z " fill="#000000" transform="translate(301.10604417324066,73.2557008266449)"/>
</svg>
