<svg width="32" height="32" viewBox="0 0 32 32" fill="none" xmlns="http://www.w3.org/2000/svg">
<path d="M18.8191 4.5787C18.9574 4.63303 19.0314 4.69601 19.136 4.8012C19.1737 4.83862 19.2114 4.87604 19.2502 4.9146C19.2908 4.95587 19.3314 4.99714 19.3732 5.03966C19.4165 5.08295 19.4599 5.12624 19.5045 5.17084C19.6477 5.31413 19.7901 5.45807 19.9326 5.60202C20.0317 5.70146 20.1308 5.80086 20.23 5.90022C20.491 6.16193 20.7514 6.42419 21.0117 6.68656C21.2774 6.95417 21.5436 7.22125 21.8098 7.48837C22.3321 8.01264 22.8537 8.53749 23.375 9.06272C23.2807 9.28355 23.1528 9.42537 22.9835 9.59429C22.9275 9.65038 22.8716 9.70646 22.814 9.76425C22.7519 9.82592 22.6898 9.88759 22.6277 9.94925C22.5623 10.0145 22.4971 10.0798 22.4318 10.1452C22.2547 10.3223 22.0771 10.4991 21.8995 10.6758C21.714 10.8606 21.5288 11.0458 21.3435 11.2309C20.9927 11.5813 20.6416 11.9314 20.2903 12.2814C19.8905 12.6799 19.4909 13.0787 19.0914 13.4776C18.2697 14.298 17.4475 15.118 16.625 15.9377C16.7193 16.1585 16.8472 16.3004 17.0165 16.4693C17.0725 16.5254 17.1284 16.5815 17.186 16.6393C17.2481 16.7009 17.3102 16.7626 17.3723 16.8243C17.4377 16.8895 17.5029 16.9548 17.5682 17.0202C17.7453 17.1973 17.9229 17.3741 18.1005 17.5508C18.286 17.7356 18.4712 17.9208 18.6565 18.1059C19.0073 18.4563 19.3584 18.8064 19.7097 19.1564C20.1095 19.5549 20.5091 19.9537 20.9086 20.3526C21.7303 21.173 22.5525 21.993 23.375 22.8127C23.1209 23.1177 22.8545 23.4045 22.573 23.6843C22.5321 23.7252 22.4912 23.7661 22.4491 23.8082C22.3153 23.942 22.1814 24.0755 22.0474 24.209C21.954 24.3022 21.8607 24.3955 21.7673 24.4887C21.5227 24.7331 21.2779 24.9773 21.0331 25.2214C20.7828 25.471 20.5328 25.7208 20.2827 25.9706C19.7928 26.4598 19.3027 26.9488 18.8125 27.4377C18.6284 27.3547 18.4985 27.2643 18.356 27.1216C18.3164 27.0822 18.2767 27.0428 18.2358 27.0021C18.1927 26.9587 18.1497 26.9153 18.1053 26.8706C18.0592 26.8245 18.013 26.7785 17.9655 26.7311C17.8105 26.5763 17.656 26.421 17.5014 26.2658C17.3906 26.1549 17.2797 26.0441 17.1688 25.9332C16.9299 25.6944 16.6912 25.4553 16.4526 25.216C16.1077 24.8701 15.7625 24.5246 15.4172 24.1791C14.8569 23.6186 14.2969 23.0578 13.7371 22.4968C13.1933 21.9518 12.6494 21.407 12.1053 20.8624C12.0717 20.8288 12.0382 20.7952 12.0037 20.7606C11.8354 20.5922 11.6672 20.4238 11.4989 20.2554C10.103 18.8582 8.70762 17.4606 7.3125 16.0627C7.39549 15.8789 7.48578 15.7487 7.62788 15.6061C7.66716 15.5664 7.70644 15.5266 7.74692 15.4857C7.79016 15.4426 7.83339 15.3995 7.87794 15.3551C7.92381 15.3089 7.96968 15.2627 8.01694 15.2151C8.17114 15.06 8.32579 14.9053 8.48044 14.7506C8.59091 14.6397 8.70136 14.5287 8.81178 14.4177C9.11209 14.116 9.41281 13.8148 9.71364 13.5136C9.9014 13.3257 10.089 13.1376 10.2767 12.9495C10.796 12.429 11.3154 11.9085 11.8353 11.3885C11.8852 11.3386 11.8852 11.3386 11.936 11.2877C12.0035 11.2202 12.0709 11.1528 12.1383 11.0854C12.1718 11.0519 12.2052 11.0184 12.2397 10.9839C12.29 10.9336 12.29 10.9336 12.3413 10.8823C12.8849 10.3385 13.4277 9.79394 13.9703 9.24905C14.5271 8.68987 15.0845 8.13128 15.6424 7.57329C15.9558 7.25987 16.2689 6.94622 16.5814 6.63192C16.8751 6.33659 17.1695 6.04207 17.4645 5.74809C17.5729 5.63979 17.681 5.53122 17.7889 5.42237C17.9356 5.27439 18.0833 5.12739 18.2312 4.98061C18.2741 4.93683 18.3171 4.89304 18.3614 4.84793C18.4208 4.78957 18.4208 4.78957 18.4814 4.73002C18.5324 4.67893 18.5324 4.67893 18.5845 4.6268C18.6875 4.56272 18.6875 4.56272 18.8191 4.5787Z" fill="#FAF6F0"/>
</svg>
