<svg width="32" height="32" viewBox="0 0 32 32" fill="none" xmlns="http://www.w3.org/2000/svg">
<path d="M7.0371 2.6163C7.11648 2.61612 7.19587 2.61593 7.27766 2.61574C7.49731 2.61524 7.71697 2.61512 7.93662 2.61508C8.17381 2.61496 8.411 2.61449 8.64818 2.61407C9.16654 2.61322 9.68489 2.61284 10.2032 2.61257C10.5272 2.6124 10.8511 2.61213 11.1751 2.61185C12.0728 2.61109 12.9704 2.61044 13.8681 2.61023C13.9543 2.61021 13.9543 2.61021 14.0421 2.61019C14.0997 2.61018 14.1572 2.61016 14.2165 2.61015C14.3331 2.61012 14.4497 2.61009 14.5663 2.61007C14.6242 2.61005 14.682 2.61004 14.7416 2.61002C15.6782 2.60978 16.6148 2.60869 17.5515 2.60723C18.5141 2.60575 19.4768 2.60497 20.4394 2.6049C20.9795 2.60484 21.5195 2.60448 22.0596 2.60335C22.5196 2.60238 22.9796 2.60206 23.4396 2.60258C23.674 2.60282 23.9084 2.60277 24.1428 2.60189C24.3977 2.60094 24.6526 2.60146 24.9075 2.60211C25.017 2.60136 25.017 2.60136 25.1288 2.60059C26.169 2.60676 27.0501 2.87237 27.8751 3.50008C27.9698 3.56776 27.9698 3.56776 28.0665 3.6368C28.8764 4.34118 29.3055 5.40731 29.3922 6.4571C29.3989 6.6682 29.4001 6.87851 29.3989 7.08971C29.3992 7.16947 29.3995 7.24923 29.3998 7.33141C29.4006 7.55008 29.4002 7.76873 29.3996 7.9874C29.3992 8.22428 29.3998 8.46116 29.4003 8.69804C29.4012 9.16102 29.401 9.624 29.4004 10.087C29.4 10.4635 29.4 10.84 29.4002 11.2166C29.4002 11.2703 29.4002 11.3241 29.4003 11.3794C29.4003 11.4887 29.4004 11.5979 29.4004 11.7071C29.401 12.7293 29.4004 13.7516 29.3994 14.7738C29.3985 15.6495 29.3987 16.5252 29.3995 17.4008C29.4005 18.4196 29.4009 19.4384 29.4003 20.4572C29.4003 20.566 29.4002 20.6748 29.4002 20.7836C29.4001 20.8371 29.4001 20.8906 29.4001 20.9458C29.3999 21.3215 29.4002 21.6972 29.4006 22.073C29.4012 22.5314 29.401 22.9898 29.4 23.4482C29.3995 23.6817 29.3993 23.9152 29.4 24.1487C29.4006 24.4026 29.3998 24.6565 29.3989 24.9104C29.3993 24.9832 29.3997 25.0559 29.4002 25.1308C29.3952 25.8276 29.2898 26.5213 28.9571 27.1407C28.9352 27.1825 28.9133 27.2243 28.8908 27.2674C28.3684 28.2362 27.5384 28.9019 26.4884 29.2345C25.9818 29.3829 25.4871 29.3842 24.9631 29.3839C24.8837 29.384 24.8043 29.3842 24.7225 29.3844C24.5028 29.3849 24.2832 29.385 24.0635 29.3851C23.8264 29.3852 23.5892 29.3857 23.352 29.3861C22.8336 29.3869 22.3153 29.3873 21.7969 29.3876C21.473 29.3878 21.149 29.388 20.8251 29.3883C19.9274 29.3891 19.0297 29.3897 18.132 29.3899C18.0459 29.3899 18.0459 29.3899 17.958 29.39C17.8717 29.39 17.8717 29.39 17.7837 29.39C17.6671 29.39 17.5504 29.3901 17.4338 29.3901C17.3471 29.3901 17.3471 29.3901 17.2586 29.3901C16.3219 29.3904 15.3853 29.3915 14.4487 29.3929C13.4861 29.3944 12.5234 29.3952 11.5608 29.3953C11.0207 29.3953 10.4806 29.3957 9.94054 29.3968C9.48054 29.3978 9.02055 29.3981 8.56055 29.3976C8.32613 29.3973 8.09173 29.3974 7.85732 29.3983C7.60242 29.3992 7.34755 29.3987 7.09265 29.398C6.98311 29.3988 6.98311 29.3988 6.87136 29.3996C6.17371 29.3954 5.47977 29.2902 4.85946 28.9571C4.81768 28.9353 4.77591 28.9135 4.73287 28.891C3.7488 28.3617 3.09828 27.5466 2.7618 26.4805C2.6168 25.977 2.61592 25.4833 2.6163 24.9631C2.61612 24.8837 2.61593 24.8043 2.61574 24.7225C2.61524 24.5028 2.61512 24.2832 2.61508 24.0635C2.61496 23.8264 2.61449 23.5892 2.61407 23.352C2.61322 22.8336 2.61284 22.3153 2.61257 21.7969C2.6124 21.473 2.61213 21.149 2.61185 20.8251C2.61109 19.9274 2.61044 19.0297 2.61023 18.132C2.61022 18.0746 2.6102 18.0172 2.61019 17.958C2.61018 17.9005 2.61016 17.843 2.61015 17.7837C2.61012 17.6671 2.61009 17.5504 2.61007 17.4338C2.61005 17.376 2.61004 17.3182 2.61002 17.2586C2.60978 16.3219 2.60869 15.3853 2.60723 14.4487C2.60575 13.4861 2.60497 12.5234 2.6049 11.5608C2.60484 11.0207 2.60448 10.4806 2.60335 9.94054C2.60238 9.48054 2.60206 9.02055 2.60258 8.56055C2.60282 8.32613 2.60277 8.09173 2.60189 7.85732C2.60094 7.60242 2.60146 7.34755 2.60211 7.09265C2.60161 7.01963 2.6011 6.9466 2.60059 6.87136C2.60675 5.83217 2.87155 4.94877 3.50008 4.12508C3.54778 4.06063 3.59547 3.99617 3.64461 3.92977C4.5771 2.93223 5.71743 2.61534 7.0371 2.6163ZM8.34774 15.1563C8.30657 15.2047 8.2654 15.253 8.22298 15.3028C7.99371 15.6184 8.02864 16.0017 8.06258 16.3751C8.16849 16.7234 8.44836 16.995 8.75008 17.1876C9.06944 17.3201 9.34923 17.3304 9.68881 17.3289C9.74493 17.3291 9.80105 17.3294 9.85886 17.3296C10.0466 17.3302 10.2342 17.33 10.4219 17.3297C10.5566 17.33 10.6913 17.3303 10.8261 17.3307C11.1918 17.3316 11.5575 17.3316 11.9232 17.3314C12.2285 17.3314 12.5339 17.3317 12.8392 17.332C13.5597 17.3327 14.2801 17.3327 15.0005 17.3323C15.7436 17.3319 16.4867 17.3327 17.2297 17.334C17.8678 17.3351 18.506 17.3355 19.1441 17.3353C19.5251 17.3352 19.9062 17.3354 20.2872 17.3362C20.6456 17.337 21.004 17.3369 21.3624 17.3361C21.4938 17.3359 21.6252 17.3361 21.7566 17.3366C21.9362 17.3373 22.1158 17.3368 22.2955 17.336C22.3732 17.3367 22.3732 17.3367 22.4524 17.3374C22.8595 17.3336 23.2137 17.2645 23.5311 16.9903C23.5711 16.942 23.6112 16.8936 23.6524 16.8438C23.6936 16.7955 23.7348 16.7472 23.7772 16.6973C24.0064 16.3817 23.9715 15.9984 23.9376 15.6251C23.8317 15.2767 23.5518 15.0052 23.2501 14.8126C22.9307 14.68 22.6509 14.6697 22.3113 14.6713C22.2552 14.671 22.1991 14.6708 22.1413 14.6706C21.9536 14.6699 21.7659 14.6702 21.5782 14.6704C21.4435 14.6701 21.3088 14.6698 21.1741 14.6694C20.8084 14.6686 20.4427 14.6686 20.077 14.6687C19.7716 14.6688 19.4663 14.6685 19.1609 14.6682C18.4405 14.6675 17.7201 14.6675 16.9996 14.6679C16.2566 14.6682 15.5135 14.6675 14.7704 14.6661C14.1323 14.665 13.4942 14.6647 12.8561 14.6649C12.475 14.665 12.094 14.6648 11.7129 14.6639C11.3545 14.6631 10.9962 14.6633 10.6378 14.6641C10.5064 14.6642 10.375 14.6641 10.2435 14.6635C10.0639 14.6629 9.88432 14.6634 9.70469 14.6642C9.627 14.6635 9.627 14.6635 9.54775 14.6628C9.06625 14.6673 8.66704 14.7709 8.34774 15.1563Z" fill="#FAF6F0"/>
</svg>
