<svg width="32" height="32" viewBox="0 0 32 32" fill="none" xmlns="http://www.w3.org/2000/svg">
<g clip-path="url(#clip0_2024_3994)">
<path d="M16.1877 9.62503C16.3096 9.69955 16.3096 9.69955 16.427 9.79398C16.4934 9.84664 16.4934 9.84664 16.5612 9.90036C16.6081 9.93841 16.655 9.97645 16.7034 10.0157C16.8041 10.0958 16.905 10.1759 17.0058 10.2559C17.0824 10.317 17.0824 10.317 17.1606 10.3794C17.3926 10.5633 17.6279 10.7427 17.8635 10.9219C17.9515 10.989 18.0395 11.0562 18.1274 11.1233C18.1902 11.1712 18.1902 11.1712 18.2542 11.22C18.566 11.4583 18.8768 11.6981 19.1877 11.9375C19.3231 12.0417 19.4586 12.1459 19.594 12.25C19.6617 12.3021 19.7294 12.3542 19.7971 12.4063C19.8474 12.445 19.8474 12.445 19.8987 12.4844C20.8635 13.2266 20.8635 13.2266 21.8284 13.9688C21.8618 13.9945 21.8953 14.0203 21.9298 14.0468C21.9978 14.0991 22.0658 14.1514 22.1337 14.2037C22.299 14.3309 22.4644 14.458 22.6299 14.585C23.0201 14.8846 23.409 15.1859 23.7971 15.4883C24.3013 15.8811 24.8085 16.2698 25.3167 16.6575C25.5574 16.8415 25.798 17.0254 26.0354 17.2137C26.1752 17.322 26.3097 17.4105 26.4628 17.502C26.7865 17.7001 27.0211 17.8653 27.1363 18.2381C27.1734 18.5299 27.1641 18.8208 27.156 19.1142C27.1558 19.2262 27.1561 19.3383 27.1566 19.4504C27.1571 19.7531 27.1526 20.0556 27.1472 20.3583C27.1423 20.6752 27.142 20.9922 27.1412 21.3091C27.1393 21.8407 27.1344 22.3721 27.1275 22.9037C27.1176 23.6543 27.1127 24.4049 27.1089 25.1555C27.1037 26.1601 27.0968 27.1646 27.0847 28.1691C27.0834 28.278 27.0822 28.3869 27.0811 28.4958C27.0796 28.6439 27.0777 28.7919 27.0757 28.9399C27.0753 28.9835 27.075 29.0272 27.0746 29.0722C27.0699 29.3679 27.0699 29.3679 27.0002 29.4375C26.8903 29.4436 26.7801 29.4451 26.67 29.445C26.5984 29.4451 26.5268 29.4452 26.453 29.4453C26.3738 29.4451 26.2945 29.4449 26.2129 29.4446C26.1291 29.4446 26.0454 29.4446 25.9616 29.4447C25.7336 29.4447 25.5055 29.4443 25.2775 29.4439C25.0394 29.4435 24.8014 29.4434 24.5633 29.4434C24.1122 29.4432 23.6611 29.4427 23.21 29.442C22.6006 29.4412 21.9912 29.4409 21.3819 29.4405C20.4213 29.4399 19.4608 29.4387 18.5002 29.4375C18.5002 26.6738 18.5002 23.91 18.5002 21.0625C16.974 21.0625 15.4477 21.0625 13.8752 21.0625C13.8752 23.8263 13.8752 26.59 13.8752 29.4375C11.6521 29.4401 11.6521 29.4401 10.7235 29.4406C10.0812 29.441 9.439 29.4414 8.79675 29.4422C8.32909 29.4429 7.86143 29.4433 7.39378 29.4434C7.146 29.4435 6.89822 29.4437 6.65045 29.4441C6.4175 29.4446 6.18456 29.4447 5.95161 29.4446C5.86587 29.4446 5.78013 29.4447 5.69439 29.445C5.57781 29.4453 5.46124 29.4452 5.34467 29.445C5.27928 29.4451 5.21389 29.4452 5.14652 29.4452C5.00023 29.4375 5.00023 29.4375 4.93773 29.375C4.92969 29.2296 4.92571 29.0859 4.92432 28.9403C4.92365 28.8943 4.92298 28.8483 4.92229 28.8009C4.92013 28.6455 4.91843 28.4901 4.91675 28.3347C4.91533 28.2237 4.9139 28.1127 4.91246 28.0018C4.8998 26.9866 4.89282 25.9714 4.88726 24.9562C4.88344 24.2735 4.87797 23.591 4.86828 22.9084C4.85984 22.3131 4.85448 21.7178 4.85286 21.1224C4.8519 20.8073 4.84944 20.4924 4.8433 20.1774C4.83758 19.8805 4.83604 19.5839 4.83761 19.287C4.83747 19.1784 4.83585 19.0698 4.83258 18.9613C4.80986 18.1661 4.80986 18.1661 5.0218 17.8908C5.22619 17.6893 5.45509 17.5337 5.69925 17.3844C5.88387 17.2675 6.05151 17.1316 6.22288 16.9961C6.28994 16.9445 6.35707 16.893 6.4243 16.8416C6.62688 16.6863 6.8292 16.5307 7.03148 16.375C7.23086 16.2216 7.43029 16.0682 7.62987 15.9151C8.02009 15.6154 8.409 15.3141 8.7971 15.0117C9.30132 14.619 9.80855 14.2303 10.3167 13.8425C10.6285 13.6042 10.9393 13.3645 11.2502 13.125C11.3856 13.0208 11.5211 12.9167 11.6565 12.8125C11.7242 12.7604 11.7919 12.7084 11.8596 12.6563C13.8909 11.0938 13.8909 11.0938 13.9925 11.0156C14.06 10.9637 14.1275 10.9117 14.195 10.8598C14.3673 10.7272 14.5397 10.5947 14.7121 10.4622C14.7644 10.422 14.7644 10.422 14.8177 10.381C14.8866 10.3281 14.9555 10.2754 15.0245 10.2227C15.1783 10.1052 15.3295 9.98591 15.4778 9.86136C15.5264 9.82075 15.5751 9.78015 15.6252 9.73831C15.6665 9.70262 15.7077 9.66693 15.7502 9.63016C15.9215 9.53752 16.003 9.57298 16.1877 9.62503Z" fill="#FAF6F0"/>
<path d="M16.1877 2.68753C16.3095 2.76205 16.3095 2.76205 16.4269 2.85648C16.4934 2.90914 16.4934 2.90914 16.5611 2.96286C16.6315 3.01993 16.6315 3.01993 16.7033 3.07816C16.8041 3.15828 16.9049 3.23836 17.0058 3.31839C17.0568 3.35916 17.1079 3.39992 17.1605 3.44192C17.3925 3.62583 17.6278 3.8052 17.8634 3.98441C17.9514 4.05153 18.0394 4.11867 18.1273 4.18582C18.1901 4.23369 18.1901 4.23369 18.2541 4.28253C18.566 4.52081 18.8767 4.76056 19.1877 5.00003C19.3231 5.10421 19.4585 5.20837 19.5939 5.31253C19.6616 5.36461 19.7293 5.4167 19.797 5.46878C19.8473 5.50745 19.8473 5.50745 19.8986 5.54691C20.271 5.83336 20.6434 6.11982 21.0158 6.40628C21.0493 6.43209 21.0829 6.4579 21.1175 6.4845C21.1848 6.53627 21.2521 6.58805 21.3194 6.63983C21.4948 6.7748 21.6703 6.90969 21.8459 7.04446C21.8821 7.07234 21.9184 7.10022 21.9558 7.12894C22.0565 7.20627 22.1572 7.28357 22.258 7.36087C22.4233 7.48893 22.5868 7.61938 22.7502 7.75003C22.7708 7.04878 22.7914 6.34753 22.8127 5.62503C24.3595 5.62503 25.9064 5.62503 27.5002 5.62503C27.4916 6.03447 27.4831 6.44391 27.4743 6.86575C27.4714 7.12668 27.4688 7.38753 27.4674 7.64847C27.4652 8.06183 27.4619 8.47492 27.4511 8.88815C27.4425 9.22175 27.4394 9.555 27.4402 9.8887C27.4395 10.0154 27.4368 10.142 27.4321 10.2686C27.3972 10.9607 27.3972 10.9607 27.6701 11.5738C27.9337 11.8286 28.2283 12.027 28.5398 12.2183C28.7848 12.3744 29.0102 12.5551 29.2384 12.7344C29.3263 12.8017 29.4143 12.8688 29.5023 12.9358C29.7914 13.1564 30.0796 13.378 30.3676 13.5999C30.5021 13.7034 30.6366 13.8068 30.7714 13.9099C31.1849 14.2268 31.5949 14.5476 32.0002 14.875C31.9624 15.0757 31.8975 15.1968 31.7709 15.356C31.7361 15.4002 31.7013 15.4444 31.6654 15.4899C31.6276 15.5371 31.5899 15.5843 31.5509 15.6328C31.4713 15.7337 31.3917 15.8345 31.3122 15.9353C31.2711 15.9871 31.2299 16.0389 31.1876 16.0923C30.987 16.3456 30.7885 16.6005 30.59 16.8555C30.5543 16.9011 30.5187 16.9466 30.4819 16.9936C30.2726 17.262 30.0711 17.5342 29.8752 17.8125C29.6193 17.7594 29.4547 17.6335 29.2541 17.4727C29.1812 17.4155 29.1084 17.3583 29.0356 17.3011C28.9985 17.2717 28.9615 17.2424 28.9233 17.2122C28.7522 17.0774 28.5793 16.945 28.4064 16.8125C28.3387 16.7605 28.271 16.7084 28.2033 16.6563C28.1698 16.6305 28.1362 16.6047 28.1017 16.5782C25.1056 14.2735 25.1056 14.2735 22.1095 11.9688C22.076 11.943 22.0425 11.9173 22.008 11.8907C21.9401 11.8384 21.8721 11.7861 21.8042 11.7339C21.6388 11.6067 21.4735 11.4796 21.308 11.3526C20.9178 11.0529 20.5289 10.7516 20.1408 10.4492C19.6366 10.0565 19.1293 9.66775 18.6212 9.28003C18.3093 9.04175 17.9986 8.802 17.6877 8.56253C17.5522 8.45835 17.4168 8.35419 17.2814 8.25003C17.2148 8.19876 17.1481 8.14749 17.0814 8.09622C17.0481 8.07054 17.0147 8.04486 16.9803 8.0184C16.6744 7.78311 16.3685 7.54782 16.0627 7.31253C15.8436 7.41148 15.6639 7.54236 15.4728 7.68753C15.4402 7.71223 15.4076 7.73693 15.374 7.76237C15.27 7.84133 15.1663 7.92062 15.0627 8.00003C15.0293 8.02556 14.9959 8.05109 14.9616 8.07739C14.7583 8.23314 14.5554 8.38942 14.3527 8.5459C14.1833 8.67663 14.0136 8.80707 13.8439 8.93753C13.7762 8.98961 13.7085 9.0417 13.6408 9.09378C13.2345 9.40628 13.2345 9.40628 13.133 9.48434C13.0651 9.53663 12.9971 9.58891 12.9292 9.6412C12.7638 9.76839 12.5985 9.8955 12.433 10.0225C12.0428 10.3221 11.6539 10.6234 11.2658 10.9258C10.7616 11.3186 10.2543 11.7073 9.74621 12.095C9.43435 12.3333 9.12361 12.5731 8.81265 12.8125C8.67725 12.9167 8.54182 13.0209 8.4064 13.125C8.33869 13.1771 8.27098 13.2292 8.20328 13.2813C6.71369 14.4271 5.22411 15.5729 3.73453 16.7188C3.70096 16.7446 3.66739 16.7704 3.63281 16.7971C3.56566 16.8487 3.49846 16.9003 3.43121 16.9518C3.25304 17.0884 3.07594 17.2262 2.90005 17.3658C2.86319 17.3948 2.82633 17.4238 2.78836 17.4536C2.71751 17.5094 2.64694 17.5656 2.57669 17.6221C2.33374 17.8125 2.33374 17.8125 2.12515 17.8125C2.04316 17.7328 2.04317 17.7328 1.95987 17.6197C1.9283 17.5775 1.89672 17.5353 1.86419 17.4919C1.81354 17.4224 1.81354 17.4224 1.76187 17.3516C1.68909 17.2541 1.61625 17.1566 1.54336 17.0591C1.50559 17.0083 1.46781 16.9575 1.42889 16.9051C1.23985 16.6529 1.04578 16.4046 0.851713 16.1563C0.748584 16.0239 0.645467 15.8916 0.542936 15.7588C0.467652 15.6632 0.390571 15.5689 0.312345 15.4756C0.271679 15.4263 0.231014 15.377 0.189115 15.3262C0.151521 15.2817 0.113927 15.2372 0.0751933 15.1913C0.000150539 15.0625 0.000150537 15.0625 0.00858865 14.9312C0.103358 14.7232 0.295222 14.6043 0.472807 14.4688C0.514797 14.436 0.556787 14.4032 0.60005 14.3694C0.934239 14.1096 1.27299 13.8557 1.61255 13.603C2.07929 13.2552 2.53718 12.8963 2.99594 12.5382C3.30858 12.2947 3.62328 12.0538 3.93765 11.8125C4.07309 11.7084 4.2085 11.6042 4.3439 11.5C4.41161 11.4479 4.47932 11.3959 4.54703 11.3438C4.5973 11.3051 4.5973 11.3051 4.64859 11.2657C13.8908 4.15628 13.8908 4.15628 13.9924 4.07811C14.0599 4.02618 14.1274 3.97425 14.1949 3.92232C14.3673 3.78973 14.5396 3.65718 14.7121 3.52469C14.7643 3.48448 14.7643 3.48448 14.8177 3.44347C14.8865 3.3906 14.9554 3.33785 15.0244 3.28523C15.1783 3.16768 15.3295 3.04841 15.4777 2.92386C15.5264 2.88325 15.575 2.84265 15.6252 2.80081C15.6664 2.76512 15.7077 2.72943 15.7502 2.69266C15.9214 2.60002 16.0029 2.63548 16.1877 2.68753Z" fill="#FAF6F0"/>
</g>
<defs>
<clipPath id="clip0_2024_3994">
<rect width="32" height="32" fill="white"/>
</clipPath>
</defs>
</svg>
