<?xml version="1.0" encoding="UTF-8"?>
<svg version="1.1" xmlns="http://www.w3.org/2000/svg" width="512" height="512">
<path d="M0 0 C1.95019531 1.19238281 1.95019531 1.19238281 3.828125 2.703125 C4.89123901 3.54568848 4.89123901 3.54568848 5.97583008 4.40527344 C6.72630615 5.0140332 7.47678223 5.62279297 8.25 6.25 C9.86269738 7.53198484 11.47599309 8.8132173 13.08984375 10.09375 C14.31550049 11.07214844 14.31550049 11.07214844 15.56591797 12.0703125 C19.27744893 15.01273383 23.04283183 17.88269184 26.8125 20.75 C28.22021993 21.82399878 29.62777546 22.89821309 31.03515625 23.97265625 C32.03893311 24.73860107 32.03893311 24.73860107 33.06298828 25.52001953 C38.05284325 29.33253539 43.02470368 33.1685218 48 37 C50.16644651 38.66695292 52.33322497 40.33347413 54.5 42 C55.58333938 42.83332547 56.66667272 43.6666588 57.75 44.5 C58.554375 45.11875 58.554375 45.11875 59.375 45.75 C74.8125 57.625 74.8125 57.625 90.25 69.5 C90.78584717 69.91217773 91.32169434 70.32435547 91.8737793 70.74902344 C92.96123001 71.5855491 94.04863207 72.42213803 95.13598633 73.25878906 C97.78093787 75.29379288 100.42681112 77.32756533 103.07421875 79.359375 C109.31787502 84.15375095 115.54038067 88.97411088 121.75 93.8125 C129.8175508 100.09694941 137.93317278 106.31645938 146.06298828 112.52001953 C149.91467663 115.46291527 153.76503056 118.40615553 157.5626049 121.41864872 C159.79914111 123.15162066 161.95148683 124.56802934 164.40165901 126.03076077 C169.58110153 129.20183074 173.33326459 131.84372398 175.17757797 137.80838203 C175.77105186 142.47752687 175.62239593 147.13229964 175.49169922 151.82641602 C175.48966653 153.6193515 175.49336183 155.41230119 175.50231934 157.20521545 C175.51028813 162.04920489 175.438242 166.88901591 175.35105276 171.73210263 C175.27324747 176.8029749 175.26878618 181.87391963 175.25613403 186.94529724 C175.2249439 195.45035558 175.14727197 203.95388281 175.03564453 212.45825195 C174.87801037 224.46801447 174.79966847 236.47730106 174.73943305 248.48789704 C174.65561857 264.56047103 174.54528061 280.63311441 174.35092163 296.70476341 C174.33034161 298.44750748 174.31139733 300.1902717 174.29416275 301.93305206 C174.27019917 304.30132881 174.23995163 306.66943612 174.20773315 309.03761292 C174.20177844 309.73603147 174.19582372 310.43445002 174.18968856 311.15403277 C174.11450122 315.88549878 174.11450122 315.88549878 173 317 C171.2410657 317.09632045 169.47822841 317.1218751 167.71665955 317.12025452 C166.57095993 317.12162918 165.42526031 317.12300385 164.24484253 317.12442017 C162.97673737 317.12082489 161.7086322 317.11722961 160.40209961 317.11352539 C159.06206769 317.11324352 157.72203561 317.11340125 156.38200378 317.1139679 C152.73340562 317.11425587 149.08484005 317.1083592 145.43624949 317.10139394 C141.62722484 317.09516034 137.8181995 317.0945566 134.00917053 317.09336853 C126.79142246 317.09025523 119.57368946 317.08204186 112.35594803 317.07201904 C102.60601027 317.0587726 92.85606841 317.05335798 83.10612392 317.04751682 C67.73740465 317.03810197 52.36871719 317.01818305 37 317 C37 272.78 37 228.56 37 183 C12.58 183 -11.84 183 -37 183 C-37 227.22 -37 271.44 -37 317 C-72.56966676 317.04030303 -72.56966676 317.04030303 -87.42773438 317.04882812 C-97.70369971 317.05477134 -107.97965688 317.06177362 -118.25561523 317.07543945 C-125.73815417 317.08538565 -133.22068651 317.09185327 -140.70323187 317.09408849 C-144.66764586 317.09539571 -148.63204095 317.09848226 -152.5964489 317.10573006 C-156.32360213 317.11248926 -160.05072857 317.11461717 -163.77788734 317.11310768 C-165.14975505 317.11338406 -166.5216236 317.11538978 -167.89348602 317.11920547 C-169.75860963 317.12414108 -171.62374744 317.12239794 -173.48887634 317.12025452 C-174.53511138 317.12117631 -175.58134642 317.1220981 -176.65928555 317.12304783 C-179 317 -179 317 -180 316 C-180.12859676 313.67264308 -180.19230644 311.37360557 -180.21446228 309.04434204 C-180.22519463 308.30804231 -180.23592697 307.57174258 -180.24698454 306.81313074 C-180.28162379 304.32679417 -180.30876961 301.84043522 -180.33569336 299.35400391 C-180.35831403 297.57862035 -180.38118255 295.80323994 -180.40428162 294.02786255 C-180.60679894 277.78535458 -180.71853735 261.54172564 -180.80750179 245.29824257 C-180.8686234 234.37590923 -180.95613105 223.45513362 -181.11108398 212.53369141 C-181.24622554 203.00851793 -181.33191129 193.48442167 -181.35790926 183.95830095 C-181.37326618 178.91699806 -181.41261623 173.8785505 -181.51078606 168.83812332 C-181.60235792 164.08792343 -181.62702755 159.34192427 -181.60180092 154.59095383 C-181.60404439 152.85380555 -181.63002979 151.11648905 -181.6823349 149.38012695 C-182.04589583 136.65702527 -182.04589583 136.65702527 -178.6547997 132.25297499 C-175.38456216 129.02761137 -171.72218684 126.53870645 -167.81558049 124.15027499 C-164.86177048 122.27886593 -162.17954395 120.1054911 -159.4375 117.9375 C-158.36465381 117.11149545 -157.29059567 116.28706043 -156.21484375 115.46484375 C-152.97357944 112.98043289 -149.73645886 110.49066617 -146.5 108 C-143.30983188 105.5452556 -140.11903478 103.09135579 -136.92578125 100.640625 C-130.68212498 95.84624905 -124.45961933 91.02588912 -118.25 86.1875 C-110.1824492 79.90305059 -102.06682722 73.68354062 -93.93701172 67.47998047 C-88.94715675 63.66746461 -83.97529632 59.8314782 -79 56 C-76.83355349 54.33304708 -74.66677503 52.66652587 -72.5 51 C-71.41666062 50.16667453 -70.33332728 49.3333412 -69.25 48.5 C-36.75 23.5 -36.75 23.5 -35.12402344 22.24926758 C-34.0439211 21.41840713 -32.96384285 20.58751536 -31.88378906 19.7565918 C-29.12622134 17.63516183 -26.36819866 15.51432773 -23.609375 13.39453125 C-22.7730957 12.75124878 -22.7730957 12.75124878 -21.91992188 12.0949707 C-20.81853761 11.24912691 -19.71570185 10.4051693 -18.61132812 9.56323242 C-16.15020791 7.68237326 -13.73116027 5.774111 -11.359375 3.78125 C-10.58078125 3.1315625 -9.8021875 2.481875 -9 1.8125 C-8.34 1.24144531 -7.68 0.67039063 -7 0.08203125 C-4.26035661 -1.40015863 -2.9560104 -0.83286173 0 0 Z " fill="#000000" transform="translate(259,154)"/>
<path d="M0 0 C1.95019531 1.19238281 1.95019531 1.19238281 3.828125 2.703125 C4.89123901 3.54568848 4.89123901 3.54568848 5.97583008 4.40527344 C7.10154419 5.31841309 7.10154419 5.31841309 8.25 6.25 C9.86269738 7.53198484 11.47599309 8.8132173 13.08984375 10.09375 C13.90694824 10.74601562 14.72405273 11.39828125 15.56591797 12.0703125 C19.27744893 15.01273383 23.04283183 17.88269184 26.8125 20.75 C28.22021993 21.82399878 29.62777546 22.89821309 31.03515625 23.97265625 C32.03893311 24.73860107 32.03893311 24.73860107 33.06298828 25.52001953 C38.05284325 29.33253539 43.02470368 33.1685218 48 37 C50.16644651 38.66695292 52.33322497 40.33347413 54.5 42 C55.58333938 42.83332547 56.66667272 43.6666588 57.75 44.5 C58.554375 45.11875 58.554375 45.11875 59.375 45.75 C65.33333333 50.33333333 71.29166667 54.91666667 77.25 59.5 C77.78689453 59.9129834 78.32378906 60.3259668 78.87695312 60.75146484 C79.95382451 61.57985237 81.03064789 62.40830228 82.10742188 63.23681641 C84.9142207 65.39635041 87.72199335 67.55460149 90.53125 69.7109375 C91.11197266 70.15695313 91.69269531 70.60296875 92.29101562 71.0625 C93.90209218 72.2998068 95.51353429 73.53663757 97.125 74.7734375 C99.77074321 76.82245058 102.38689843 78.90951874 105 81 C105.33 69.78 105.66 58.56 106 47 C130.75 47 155.5 47 181 47 C180.86335938 53.55101562 180.72671875 60.10203125 180.5859375 66.8515625 C180.53951233 71.02646839 180.49847174 75.20006852 180.4765625 79.375 C180.44134968 85.98872614 180.38732649 92.59820436 180.21484375 99.20996094 C180.07685218 104.54758481 180.02862794 109.87947156 180.04002762 115.21879196 C180.02907833 117.24513632 179.98692186 119.27158247 179.91166306 121.29655838 C179.35232517 132.37071886 179.35232517 132.37071886 183.71976471 142.1807785 C187.93721912 146.25784164 192.65021322 149.43119175 197.63364029 152.49291611 C201.55417389 154.98982011 205.16074085 157.88110866 208.8125 160.75 C210.21847848 161.82627752 211.62582631 162.90077103 213.03515625 163.97265625 C217.65967855 167.5014574 222.27049346 171.04785514 226.87890625 174.59765625 C229.03064155 176.25387303 231.18397505 177.90778214 233.33984375 179.55859375 C239.95606732 184.62856678 246.5165562 189.76055784 253 195 C252.39528734 198.21007176 251.35806006 200.14893024 249.33203125 202.6953125 C248.77507568 203.40260498 248.21812012 204.10989746 247.64428711 204.83862305 C247.03979736 205.59312744 246.43530762 206.34763184 245.8125 207.125 C244.53892512 208.7381728 243.26549183 210.35145739 241.9921875 211.96484375 C241.33444336 212.7935498 240.67669922 213.62225586 239.99902344 214.47607422 C236.78910429 218.52885196 233.61310006 222.60781604 230.4375 226.6875 C229.86684814 227.41662598 229.29619629 228.14575195 228.70825195 228.89697266 C225.35871864 233.1908394 222.13440383 237.5464616 219 242 C214.90575293 241.15006474 212.27258948 239.13597318 209.0625 236.5625 C207.89727095 235.64696289 206.73190249 234.73160319 205.56640625 233.81640625 C204.97359863 233.34734863 204.38079102 232.87829102 203.77001953 232.39501953 C201.03291056 230.23780013 198.26606039 228.11987503 195.5 226 C194.41650308 225.16687938 193.33317019 224.33354537 192.25 223.5 C191.71375 223.0875 191.1775 222.675 190.625 222.25 C142.6875 185.375 142.6875 185.375 94.75 148.5 C94.21415283 148.08782227 93.67830566 147.67564453 93.1262207 147.25097656 C92.03876999 146.4144509 90.95136793 145.57786197 89.86401367 144.74121094 C87.21906213 142.70620712 84.57318888 140.67243467 81.92578125 138.640625 C75.68212498 133.84624905 69.45961933 129.02588912 63.25 124.1875 C55.1824492 117.90305059 47.06682722 111.68354062 38.93701172 105.47998047 C33.94715675 101.66746461 28.97529632 97.8314782 24 94 C21.83355349 92.33304708 19.66677524 90.66652559 17.5 89 C16.43358769 88.17969538 15.36718146 87.35938285 14.30078125 86.5390625 C13.76662598 86.12817383 13.2324707 85.71728516 12.68212891 85.29394531 C7.78808594 81.52929688 2.89404297 77.76464844 -2 74 C-5.50436989 75.58315063 -8.38053351 77.67720321 -11.4375 80 C-11.95900635 80.39517822 -12.4805127 80.79035645 -13.01782227 81.19750977 C-14.68180054 82.46080425 -16.34151901 83.72949894 -18 85 C-18.53367188 85.40847168 -19.06734375 85.81694336 -19.6171875 86.23779297 C-22.86966628 88.72970735 -26.11542762 91.23024841 -29.35888672 93.73388672 C-32.07022129 95.82567207 -34.78528452 97.91260557 -37.5 100 C-38.58335149 100.83330973 -39.66668482 101.66664307 -40.75 102.5 C-47.25 107.5 -47.25 107.5 -48.8737793 108.74902344 C-49.96123001 109.5855491 -51.04863207 110.42213803 -52.13598633 111.25878906 C-54.78093787 113.29379288 -57.42681112 115.32756533 -60.07421875 117.359375 C-66.31787502 122.15375095 -72.54038067 126.97411088 -78.75 131.8125 C-86.8175508 138.09694941 -94.93317278 144.31645938 -103.06298828 150.52001953 C-108.05284325 154.33253539 -113.02470368 158.1685218 -118 162 C-120.16644651 163.66695292 -122.33322497 165.33347413 -124.5 167 C-125.58333938 167.83332547 -126.66667272 168.6666588 -127.75 169.5 C-151.58333333 187.83333333 -175.41666667 206.16666667 -199.25 224.5 C-199.78705566 224.91330566 -200.32411133 225.32661133 -200.87744141 225.75244141 C-201.95191006 226.57858267 -203.02709637 227.40379146 -204.10302734 228.22802734 C-206.9538284 230.41395891 -209.78735177 232.61866264 -212.6015625 234.8515625 C-213.19130859 235.315625 -213.78105469 235.7796875 -214.38867188 236.2578125 C-215.52222786 237.15037627 -216.65136753 238.0485857 -217.77539062 238.953125 C-221.66261341 242 -221.66261341 242 -225 242 C-226.31176758 240.72509766 -226.31176758 240.72509766 -227.64453125 238.9140625 C-228.14968262 238.23923828 -228.65483398 237.56441406 -229.17529297 236.86914062 C-229.98571045 235.75829102 -229.98571045 235.75829102 -230.8125 234.625 C-231.97696123 233.0644297 -233.14235805 231.50455716 -234.30859375 229.9453125 C-234.91300293 229.13223633 -235.51741211 228.31916016 -236.14013672 227.48144531 C-239.16482706 223.44587789 -242.2699002 219.47382098 -245.375 215.5 C-247.02507156 213.3826663 -248.67492994 211.2653867 -250.31542969 209.140625 C-251.51997585 207.60997852 -252.7532793 206.10178873 -254.00488281 204.609375 C-254.65553711 203.82046875 -255.30619141 203.0315625 -255.9765625 202.21875 C-256.57807129 201.50654297 -257.17958008 200.79433594 -257.79931641 200.06054688 C-259 198 -259 198 -258.86499023 195.8984375 C-257.34867801 192.57051092 -254.27886097 190.66852839 -251.4375 188.5 C-250.76565674 187.97519043 -250.09381348 187.45038086 -249.40161133 186.90966797 C-244.05458643 182.75286935 -238.63457525 178.69060039 -233.20166016 174.64697266 C-225.7337693 169.08347512 -218.40759023 163.34049119 -211.06738281 157.61035156 C-206.06518414 153.71397669 -201.02999186 149.86037495 -196 146 C-193.83289153 144.33390747 -191.66645047 142.66694801 -189.5 141 C-188.41667876 140.16665095 -187.33334544 139.33331759 -186.25 138.5 C-185.445625 137.88125 -185.445625 137.88125 -184.625 137.25 C-36.75 23.5 -36.75 23.5 -35.12402344 22.24926758 C-34.0439211 21.41840713 -32.96384285 20.58751536 -31.88378906 19.7565918 C-29.12622134 17.63516183 -26.36819866 15.51432773 -23.609375 13.39453125 C-22.7730957 12.75124878 -22.7730957 12.75124878 -21.91992188 12.0949707 C-20.81853761 11.24912691 -19.71570185 10.4051693 -18.61132812 9.56323242 C-16.15020791 7.68237326 -13.73116027 5.774111 -11.359375 3.78125 C-10.58078125 3.1315625 -9.8021875 2.481875 -9 1.8125 C-8.34 1.24144531 -7.68 0.67039063 -7 0.08203125 C-4.26035661 -1.40015863 -2.9560104 -0.83286173 0 0 Z " fill="#000000" transform="translate(259,43)"/>
</svg>
