<svg width="32" height="32" viewBox="0 0 32 32" fill="none" xmlns="http://www.w3.org/2000/svg">
<g clip-path="url(#clip0_2024_3997)">
<path d="M28.9883 -0.0232916C29.0649 -0.0237882 29.1416 -0.0242848 29.2206 -0.0247965C29.4417 -0.0258979 29.6629 -0.0255775 29.884 -0.0247564C29.9504 -0.0251268 30.0167 -0.0254973 30.0851 -0.0258789C30.68 -0.0203659 31.1401 0.0889036 31.5796 0.502099C31.8814 0.846228 32.0066 1.23724 32.0101 1.68932C32.0107 1.75214 32.0113 1.81496 32.0119 1.87968C32.0123 1.98161 32.0123 1.98161 32.0127 2.0856C32.0131 2.15649 32.0136 2.22738 32.014 2.30042C32.0151 2.53106 32.0155 2.76169 32.0156 2.99233C32.0157 3.07068 32.0157 3.14902 32.0158 3.22974C32.0148 4.39482 31.9872 5.53399 31.8125 6.68765C31.8018 6.76103 31.791 6.83442 31.78 6.91003C31.0852 11.5603 29.1984 15.6678 25.9678 19.0885C25.8706 19.1924 25.7748 19.2975 25.6792 19.403C25.3804 19.7323 25.0824 20.0521 24.7405 20.3378C24.6154 20.4459 24.5017 20.5611 24.3867 20.6798C24.0907 20.9792 23.7662 21.2378 23.4375 21.5001C23.3657 21.5588 23.2941 21.6174 23.2224 21.6762C21.9474 22.7167 20.5718 23.5938 19.125 24.3751C18.8064 24.1084 18.508 23.8294 18.2149 23.5351C18.1466 23.4668 18.1466 23.4668 18.0769 23.3972C17.9252 23.2456 17.7738 23.0939 17.6223 22.9421C17.5133 22.833 17.4042 22.724 17.2952 22.6149C17.0609 22.3806 16.8266 22.1462 16.5925 21.9118C16.254 21.5728 15.9153 21.2339 15.5766 20.8951C15.027 20.3453 14.4775 19.7954 13.9281 19.2454C13.3946 18.7114 12.861 18.1774 12.3274 17.6435C12.2944 17.6105 12.2615 17.5776 12.2276 17.5436C12.0624 17.3783 11.8972 17.2131 11.732 17.0478C10.3628 15.6779 8.99382 14.3079 7.625 12.9376C7.70343 12.779 7.78205 12.6205 7.86078 12.4621C7.88272 12.4176 7.90466 12.3732 7.92727 12.3274C8.12313 11.9338 8.34252 11.5588 8.57812 11.1876C8.61847 11.1236 8.65881 11.0596 8.70038 10.9937C9.01918 10.4937 9.35827 10.0148 9.72501 9.54894C9.81194 9.43836 9.89766 9.32693 9.98315 9.21523C10.5311 8.50324 11.1074 7.81161 11.7524 7.1852C11.8682 7.06946 11.9731 6.94984 12.0781 6.82436C12.3654 6.4899 12.6959 6.20073 13.0225 5.9056C13.1183 5.81872 13.2134 5.73099 13.3083 5.64321C13.6725 5.30745 14.045 4.98974 14.4375 4.68765C14.4727 4.66043 14.5079 4.63322 14.5441 4.60519C17.7316 2.14726 21.3385 0.768448 25.3125 0.187646C25.3806 0.177323 25.4488 0.167001 25.519 0.156365C26.6722 -0.0109455 27.8251 -0.0192422 28.9883 -0.0232916ZM18.3379 7.05947C17.5735 8.03403 17.1725 9.1957 17.25 10.4376C17.4199 11.777 18.0046 12.871 19.0352 13.758C19.7577 14.3128 20.6495 14.6931 21.5625 14.7501C21.6115 14.7534 21.6605 14.7568 21.7109 14.7602C23.0345 14.8055 24.2696 14.2935 25.2358 13.3993C26.1444 12.4254 26.6073 11.2313 26.5919 9.90247C26.5514 8.77597 26.132 7.77503 25.375 6.93765C25.3358 6.89341 25.2967 6.84918 25.2563 6.80361C24.4518 5.94488 23.2763 5.45237 22.1108 5.41247C20.6385 5.39273 19.3163 5.94695 18.3379 7.05947Z" fill="#FAF6F0"/>
<path d="M6.81251 14.6875C6.98838 14.7677 7.11682 14.8512 7.25335 14.9876C7.28955 15.0235 7.32575 15.0594 7.36305 15.0963C7.42179 15.1555 7.42179 15.1555 7.4817 15.2158C7.54481 15.2786 7.54481 15.2786 7.60919 15.3427C7.75036 15.4834 7.89108 15.6245 8.03181 15.7656C8.1328 15.8665 8.23383 15.9672 8.33487 16.068C8.60942 16.342 8.88357 16.6164 9.15763 16.8908C9.44405 17.1776 9.73078 17.464 10.0175 17.7505C10.5296 18.2624 11.0414 18.7746 11.5531 19.2869C12.0174 19.7518 12.4821 20.2163 12.947 20.6807C13.4866 21.2196 14.026 21.7588 14.5651 22.2982C14.8506 22.5839 15.1361 22.8695 15.4219 23.1548C15.6904 23.423 15.9585 23.6914 16.2265 23.96C16.3251 24.0589 16.4239 24.1576 16.5228 24.2562C16.6572 24.3902 16.7912 24.5247 16.9251 24.6592C16.9648 24.6986 17.0045 24.738 17.0454 24.7787C17.3125 25.0482 17.3125 25.0482 17.3125 25.1875C13.8255 26.6527 13.8255 26.6527 12.6124 26.1985C12.1643 25.9882 11.8484 25.7054 11.5025 25.3554C11.4432 25.2966 11.3839 25.2378 11.3246 25.1791C11.1649 25.0209 11.0062 24.8617 10.8477 24.7022C10.6809 24.5346 10.5134 24.3678 10.3459 24.2008C10.065 23.9205 9.78475 23.6395 9.50485 23.3581C9.18228 23.0338 8.85861 22.7107 8.53433 22.3881C8.25481 22.11 7.97591 21.8313 7.69751 21.5521C7.53172 21.3858 7.36574 21.2198 7.1992 21.0543C7.04258 20.8986 6.88675 20.7421 6.73148 20.585C6.6479 20.5008 6.56355 20.4174 6.47918 20.334C6.05469 19.9021 5.7049 19.4418 5.70704 18.8125C5.73448 17.4844 6.19508 15.8575 6.81251 14.6875Z" fill="#FAF6F0"/>
<path d="M23.375 23.8125C23.3891 24.376 23.3526 24.9339 23.3086 25.4952C23.2969 25.6477 23.2865 25.8001 23.2761 25.9526C23.1967 27.0231 22.9789 27.7719 22.154 28.4972C21.9199 28.6914 21.6714 28.8573 21.416 29.022C21.334 29.0757 21.334 29.0757 21.2502 29.1306C21.0733 29.2463 20.8961 29.3614 20.7188 29.4766C20.5338 29.5973 20.349 29.7182 20.1641 29.8391C20.0399 29.9203 19.9155 30.0016 19.7912 30.0827C19.401 30.3377 19.0125 30.5952 18.6257 30.8555C18.5781 30.8874 18.5306 30.9194 18.4815 30.9524C18.3025 31.0727 18.1235 31.1931 17.945 31.3142C17.8251 31.3955 17.7049 31.4763 17.5847 31.5571C17.5181 31.6022 17.4515 31.6473 17.3829 31.6938C16.8663 32.0077 16.4146 32.0577 15.8125 32C15.409 31.8939 15.0348 31.6722 14.797 31.3229C14.5123 30.8057 14.4459 30.2592 14.3594 29.6836C14.3434 29.5828 14.3272 29.482 14.311 29.3812C14.2381 28.9215 14.1742 28.4629 14.125 28C14.4064 27.8987 14.6899 27.8277 14.9805 27.7594C17.9359 27.0578 20.6734 25.7199 23.1284 23.9426C23.3125 23.8125 23.3125 23.8125 23.375 23.8125Z" fill="#FAF6F0"/>
<path d="M8.18726 8.62481C7.97542 8.9622 7.76112 9.2968 7.53674 9.626C5.94578 11.9709 4.70709 14.6087 4.16434 17.4006C4.15345 17.4541 4.14256 17.5075 4.13135 17.5626C4.12242 17.6095 4.11349 17.6564 4.10429 17.7048C4.09042 17.7403 4.07655 17.7757 4.06226 17.8123C3.81246 17.8956 3.60174 17.8469 3.34741 17.8077C3.29521 17.7999 3.243 17.792 3.18921 17.784C3.07843 17.7672 2.96768 17.7502 2.85696 17.733C2.68975 17.7072 2.52239 17.6826 2.35498 17.6581C0.740439 17.4147 0.740439 17.4147 0.234131 16.7537C0.0417906 16.4171 -0.020712 16.1208 -0.0275879 15.7342C-0.0300854 15.6578 -0.032583 15.5814 -0.0351562 15.5027C0.0077876 14.9154 0.461443 14.3828 0.781006 13.9139C0.880577 13.7665 0.979846 13.619 1.0791 13.4715C1.10626 13.4312 1.13343 13.3909 1.16141 13.3493C1.40996 12.9797 1.65466 12.6076 1.89893 12.2352C1.95908 12.1435 1.95908 12.1435 2.02044 12.05C2.18251 11.8031 2.34457 11.5561 2.50623 11.3088C2.62064 11.1339 2.73534 10.9592 2.8501 10.7845C2.88392 10.7326 2.91774 10.6807 2.95259 10.6272C3.44199 9.8836 3.9651 9.10222 4.87476 8.87481C5.22752 8.81339 5.58062 8.77979 5.93726 8.74981C6.00226 8.74417 6.06727 8.73853 6.13425 8.73272C6.34849 8.71437 6.56277 8.69674 6.7771 8.6795C6.84518 8.67401 6.91326 8.66852 6.9834 8.66286C7.3856 8.63244 7.78393 8.6177 8.18726 8.62481Z" fill="#FAF6F0"/>
<path d="M23.6195 7.76991C24.2187 8.25152 24.5704 8.8083 24.7501 9.56239C24.826 10.4041 24.7112 11.1702 24.1859 11.8573C23.6295 12.5008 22.9534 12.8722 22.1026 12.9511C21.3196 12.981 20.4956 12.7095 19.9161 12.1737C19.3272 11.5403 19.0375 10.7857 19.0492 9.92348C19.116 9.06001 19.5012 8.39751 20.1251 7.81239C21.1396 7.03228 22.5864 7.01892 23.6195 7.76991Z" fill="#FAF6F0"/>
<path d="M7.39478 24.3592C7.65045 24.5732 7.73146 24.7291 7.80493 25.0545C7.83269 25.3768 7.73481 25.6123 7.53686 25.8607C7.24665 26.1903 6.94296 26.5038 6.63242 26.8142C6.55169 26.8953 6.55169 26.8953 6.46934 26.9779C6.32316 27.1246 6.17685 27.2711 6.03045 27.4176C5.93881 27.5092 5.84722 27.601 5.75564 27.6927C5.4357 28.0132 5.1156 28.3336 4.79535 28.6538C4.49744 28.9517 4.19989 29.2499 3.90249 29.5483C3.64633 29.8052 3.38994 30.062 3.13335 30.3185C2.98044 30.4714 2.82763 30.6244 2.67506 30.7776C2.50519 30.9482 2.33482 31.1183 2.1644 31.2883C2.08909 31.3642 2.08909 31.3642 2.01227 31.4415C1.96567 31.4879 1.91907 31.5342 1.87105 31.582C1.83089 31.6222 1.79073 31.6624 1.74935 31.7038C1.42004 31.9918 1.17073 32.0333 0.74292 32.0218C0.498928 31.992 0.365413 31.9184 0.187744 31.7498C0.0253027 31.5207 -0.0293984 31.3545 -0.0349121 31.074C-0.0375708 31.013 -0.0402295 30.9521 -0.0429688 30.8892C0.0682318 30.3697 0.577684 29.9669 0.940689 29.6057C0.996325 29.5498 1.05196 29.494 1.10928 29.4364C1.26059 29.2846 1.41228 29.1331 1.56407 28.9817C1.72343 28.8227 1.88248 28.6633 2.04159 28.504C2.30851 28.2369 2.5757 27.97 2.84303 27.7032C3.15172 27.3952 3.45995 27.0868 3.76794 26.7781C4.03312 26.5123 4.29853 26.2469 4.56415 25.9816C4.7225 25.8234 4.88075 25.6652 5.03879 25.5067C5.2148 25.3303 5.39131 25.1544 5.56789 24.9785C5.64597 24.9 5.64597 24.9 5.72563 24.82C5.7739 24.7721 5.82216 24.7242 5.8719 24.6748C5.91352 24.6332 5.95515 24.5916 5.99804 24.5488C6.43186 24.1686 6.87695 24.0856 7.39478 24.3592Z" fill="#FAF6F0"/>
<path d="M10 27.0623C10.2751 27.2049 10.4344 27.3416 10.5625 27.6248C10.6522 27.9351 10.6127 28.201 10.5 28.4998C10.3956 28.638 10.3028 28.7462 10.18 28.8644C10.1474 28.8972 10.1149 28.9299 10.0814 28.9637C9.97456 29.0709 9.86648 29.1767 9.7583 29.2825C9.68334 29.3571 9.60845 29.4317 9.53363 29.5064C9.3771 29.6624 9.21998 29.8177 9.06235 29.9726C8.86043 30.1709 8.65962 30.3704 8.45919 30.5703C8.30473 30.7242 8.14991 30.8778 7.99497 31.0313C7.9208 31.1047 7.8467 31.1782 7.77265 31.2518C7.66916 31.3544 7.56526 31.4566 7.46121 31.5587C7.43075 31.589 7.40029 31.6193 7.3689 31.6506C7.11403 31.8991 6.92772 32.0176 6.57031 32.0232C6.26975 32.0161 6.10287 31.9559 5.875 31.7498C5.61393 31.4681 5.59602 31.2288 5.5918 30.8611C5.66094 30.4991 5.93117 30.2402 6.1833 29.9858C6.21312 29.9556 6.24293 29.9253 6.27365 29.8942C6.37132 29.7953 6.46944 29.697 6.56763 29.5986C6.63629 29.5296 6.70495 29.4605 6.7736 29.3914C6.91717 29.2471 7.06099 29.103 7.20497 28.9591C7.38886 28.7753 7.57187 28.5905 7.75467 28.4056C7.89607 28.2628 8.03803 28.1206 8.18016 27.9785C8.24786 27.9107 8.31536 27.8426 8.38265 27.7744C8.47699 27.6788 8.5721 27.5841 8.66743 27.4895C8.72122 27.4355 8.77501 27.3815 8.83043 27.3259C9.19582 27.0271 9.54344 26.94 10 27.0623Z" fill="#FAF6F0"/>
<path d="M4.67561 21.6054C4.87888 21.8203 4.99282 22.0267 5.00593 22.3276C4.97226 22.8154 4.71526 23.1126 4.37604 23.4524C4.33087 23.4979 4.33087 23.4979 4.28479 23.5443C4.1862 23.6435 4.08717 23.7421 3.98811 23.8408C3.91898 23.91 3.84987 23.9792 3.78078 24.0485C3.63641 24.193 3.49181 24.3373 3.34705 24.4815C3.16169 24.6662 2.97689 24.8514 2.79225 25.0368C2.64986 25.1796 2.50716 25.3222 2.36438 25.4646C2.29611 25.5328 2.22793 25.6011 2.15985 25.6695C2.06474 25.7649 1.96923 25.8599 1.8736 25.9548C1.79229 26.036 1.79229 26.036 1.70934 26.1188C1.41384 26.3824 1.18011 26.4027 0.793037 26.3945C0.46993 26.357 0.311718 26.1934 0.101387 25.9609C-0.0329308 25.6819 -0.0632751 25.4293 -0.00017577 25.125C0.163387 24.8558 0.348013 24.635 0.568611 24.411C0.599543 24.3795 0.630476 24.3479 0.662346 24.3154C0.763753 24.2122 0.865628 24.1094 0.967598 24.0068C1.0026 23.9714 1.0376 23.9361 1.07367 23.8996C1.25869 23.7128 1.44407 23.5262 1.62977 23.34C1.82088 23.1482 2.0108 22.9553 2.20047 22.762C2.34719 22.613 2.49474 22.4648 2.64253 22.3168C2.71291 22.246 2.78297 22.175 2.85271 22.1036C2.9505 22.0037 3.04942 21.905 3.14869 21.8065C3.20456 21.7502 3.26043 21.6939 3.318 21.6358C3.76025 21.3053 4.21728 21.3304 4.67561 21.6054Z" fill="#FAF6F0"/>
</g>
<defs>
<clipPath id="clip0_2024_3997">
<rect width="32" height="32" fill="white"/>
</clipPath>
</defs>
</svg>
