<?xml version="1.0" encoding="UTF-8"?>
<svg version="1.1" xmlns="http://www.w3.org/2000/svg" width="512" height="512">
<path d="M0 0 C40.07981401 36.55394168 65.77898944 83.35431002 72.87109375 137.3671875 C72.96680664 138.00688477 73.06251953 138.64658203 73.16113281 139.30566406 C79.16635566 183.88206735 69.51310615 229.40796852 49.87109375 269.3671875 C59.97832392 277.11490065 70.09642396 284.84227758 80.37109375 292.3671875 C88.15260158 298.06755625 95.84381982 303.87907366 103.50317383 309.74243164 C108.15862756 313.3059786 112.83667802 316.82984182 117.55859375 320.3046875 C130.17418231 329.82013853 139.33610172 340.0804034 145.80859375 354.5546875 C146.23241333 355.4974353 146.23241333 355.4974353 146.66479492 356.45922852 C153.59146105 372.88908515 153.49671448 394.91480343 146.87109375 411.3671875 C138.35829073 430.65369965 124.93091976 444.77635647 105.41796875 453 C85.09498861 460.83374785 63.98464737 460.03152424 43.85546875 451.734375 C29.34048794 445.08484191 18.81188871 435.13038763 9.45361328 422.49121094 C7.69669243 420.13310983 5.90958462 417.79999355 4.1171875 415.46875 C-2.96596597 406.24736742 -9.94621134 396.95675853 -16.80834961 387.56982422 C-20.01003134 383.20210074 -23.25814378 378.8757446 -26.55859375 374.58203125 C-27.29851562 373.61910156 -28.0384375 372.65617187 -28.80078125 371.6640625 C-30.24700637 369.78704692 -31.69739927 367.91323374 -33.15234375 366.04296875 C-33.80203125 365.19992187 -34.45171875 364.356875 -35.12109375 363.48828125 C-35.7022998 362.7398999 -36.28350586 361.99151855 -36.88232422 361.22045898 C-38.12890625 359.3671875 -38.12890625 359.3671875 -38.12890625 357.3671875 C-38.99765381 357.72433838 -39.86640137 358.08148926 -40.76147461 358.44946289 C-103.42484387 384.11138734 -166.41375035 391.53449433 -230.34619141 364.84033203 C-257.03826022 353.34984293 -279.6838124 336.94656768 -300.12890625 316.3671875 C-300.763125 315.75617188 -301.39734375 315.14515625 -302.05078125 314.515625 C-330.23107184 287.17833455 -348.7549128 249.40128275 -357.12890625 211.3671875 C-357.33773438 210.44083496 -357.5465625 209.51448242 -357.76171875 208.56005859 C-364.02078193 179.46828944 -363.80360459 146.35157388 -357.12890625 117.3671875 C-356.89284668 116.33964355 -356.65678711 115.31209961 -356.41357422 114.25341797 C-347.74314851 77.94496215 -330.51785042 45.73790278 -305.63476562 18.06396484 C-304.05378608 16.28254334 -302.51646462 14.46871724 -300.98046875 12.6484375 C-298.91402442 10.22916918 -296.82529047 8.03805749 -294.37890625 5.9921875 C-292.20245045 4.15057106 -290.06462031 2.30642729 -287.9921875 0.34765625 C-216.99346634 -66.55266674 -100.3056842 -70.37650805 0 0 Z M-243.12890625 31.3671875 C-244.00546875 32.01816406 -244.88203125 32.66914062 -245.78515625 33.33984375 C-280.6662622 60.60384072 -300.68205586 98.26128976 -308.12890625 141.3671875 C-308.30470215 142.29692383 -308.48049805 143.22666016 -308.66162109 144.18457031 C-311.47367183 163.33707469 -309.88704289 184.7188624 -305.12890625 203.3671875 C-304.84805176 204.50728271 -304.84805176 204.50728271 -304.56152344 205.67041016 C-301.86196609 216.40103407 -297.84506233 226.37765826 -293.12890625 236.3671875 C-292.63390625 237.43839844 -292.13890625 238.50960937 -291.62890625 239.61328125 C-288.09681768 246.9941946 -283.86741639 253.70419219 -279.12890625 260.3671875 C-278.43539062 261.36105469 -277.741875 262.35492188 -277.02734375 263.37890625 C-265.87547473 278.65045197 -251.99400997 292.07459014 -236.12890625 302.3671875 C-235.20730713 302.96732666 -235.20730713 302.96732666 -234.26708984 303.57958984 C-216.42987755 315.03940695 -196.91013559 323.03174327 -176.12890625 327.3671875 C-175.21238281 327.56054688 -174.29585937 327.75390625 -173.3515625 327.953125 C-132.1358172 335.42720233 -87.78018579 326.28283825 -52.75390625 303.3671875 C-43.6255767 297.03903472 -35.26110848 289.91948144 -27.12890625 282.3671875 C-26.16404297 281.5009375 -26.16404297 281.5009375 -25.1796875 280.6171875 C4.20721718 253.01690805 20.75326271 210.57472254 22.09375 170.8046875 C22.51515122 150.71516333 20.12398264 131.47920054 13.87109375 112.3671875 C13.54866699 111.36727783 13.54866699 111.36727783 13.21972656 110.34716797 C-0.17845141 69.66196836 -30.86775591 35.54654843 -68.87890625 16.2421875 C-125.078907 -11.4203524 -192.66444184 -6.15600318 -243.12890625 31.3671875 Z " fill="#000000" transform="translate(361.12890625,53.6328125)"/>
</svg>
