<svg width="32" height="32" viewBox="0 0 32 32" fill="none" xmlns="http://www.w3.org/2000/svg">
<g clip-path="url(#clip0_2024_4006)">
<path d="M22.5706 3.35184C25.0755 5.63646 26.6817 8.56148 27.125 11.9373C27.131 11.9773 27.137 12.0172 27.1431 12.0584C27.5184 14.8445 26.9151 17.6898 25.6875 20.1873C26.3192 20.6715 26.9516 21.1545 27.5937 21.6248C28.0801 21.9811 28.5608 22.3443 29.0395 22.7107C29.3305 22.9335 29.6228 23.1537 29.918 23.3709C30.7064 23.9656 31.2791 24.6069 31.6836 25.5115C31.7101 25.5704 31.7101 25.5704 31.7371 25.6305C32.17 26.6574 32.1641 28.034 31.75 29.0623C31.2179 30.2677 30.3787 31.1504 29.1592 31.6643C27.889 32.1539 26.5696 32.1038 25.3115 31.5852C24.4043 31.1696 23.7463 30.5475 23.1614 29.7575C23.0516 29.6102 22.9399 29.4643 22.8279 29.3186C22.3852 28.7423 21.9489 28.1616 21.52 27.575C21.3199 27.302 21.1169 27.0316 20.9106 26.7632C20.8644 26.703 20.8181 26.6428 20.7705 26.5808C20.6801 26.4635 20.5895 26.3464 20.4985 26.2295C20.4579 26.1768 20.4173 26.1241 20.3755 26.0699C20.3392 26.0231 20.3028 25.9763 20.2654 25.9281C20.1875 25.8123 20.1875 25.8123 20.1875 25.6873C20.1332 25.7096 20.0789 25.7319 20.023 25.7549C16.1065 27.3588 12.1697 27.8227 8.17391 26.1544C6.50566 25.4362 5.09031 24.411 3.8125 23.1248C3.77286 23.0866 3.73322 23.0484 3.69238 23.0091C1.93111 21.3005 0.77337 18.9394 0.249996 16.5623C0.236944 16.5044 0.223892 16.4465 0.210445 16.3868C-0.180747 14.5686 -0.167173 12.4988 0.249996 10.6873C0.264749 10.6231 0.279503 10.5588 0.294704 10.4927C0.836605 8.2234 1.91319 6.21045 3.46838 4.48083C3.56719 4.36949 3.66327 4.25613 3.75927 4.14236C3.88843 3.99116 4.01897 3.85421 4.17187 3.72635C4.3079 3.61125 4.44151 3.49599 4.57104 3.37356C9.00846 -0.807706 16.3014 -1.0467 22.5706 3.35184ZM7.375 5.31228C7.32021 5.35297 7.26543 5.39366 7.20898 5.43558C5.02891 7.13958 3.77792 9.49317 3.3125 12.1873C3.30151 12.2454 3.29052 12.3035 3.2792 12.3634C3.10345 13.5604 3.20261 14.8968 3.5 16.0623C3.51755 16.1335 3.51755 16.1335 3.53546 16.2062C3.70418 16.8769 3.95524 17.5004 4.25 18.1248C4.28093 18.1917 4.31187 18.2587 4.34375 18.3277C4.5645 18.789 4.82884 19.2083 5.125 19.6248C5.16834 19.6869 5.21169 19.749 5.25634 19.813C5.95334 20.7675 6.82093 21.6065 7.8125 22.2498C7.8701 22.2873 7.8701 22.2873 7.92886 22.3256C9.04368 23.0418 10.2637 23.5413 11.5625 23.8123C11.6198 23.8244 11.6771 23.8365 11.7361 23.8489C14.3121 24.316 17.0843 23.7445 19.2734 22.3123C19.844 21.9168 20.3667 21.4718 20.875 20.9998C20.9353 20.9456 20.9353 20.9456 20.9968 20.8904C22.8335 19.1654 23.8676 16.5128 23.9514 14.0271C23.9777 12.7715 23.8283 11.5693 23.4375 10.3748C23.4173 10.3123 23.4173 10.3123 23.3968 10.2485C22.5594 7.70571 20.6413 5.5735 18.2656 4.36697C14.7531 2.63806 10.529 2.96709 7.375 5.31228Z" fill="#FAF6F0"/>
</g>
<defs>
<clipPath id="clip0_2024_4006">
<rect width="32" height="32" fill="white"/>
</clipPath>
</defs>
</svg>
