<svg width="32" height="32" viewBox="0 0 32 32" fill="none" xmlns="http://www.w3.org/2000/svg">
<g clip-path="url(#clip0_2024_4008)">
<path d="M31.5001 2.8752C31.8622 3.22615 32.0132 3.62681 32.0257 4.13036C32.0262 4.9156 31.8826 5.64549 31.7132 6.40987C31.6824 6.55326 31.6517 6.69668 31.6211 6.84013C31.5383 7.22691 31.454 7.61337 31.3694 7.99978C31.2887 8.36989 31.2091 8.74025 31.1295 9.11061C30.9822 9.79661 30.834 10.4825 30.6853 11.1682C30.4707 12.1577 30.2584 13.1478 30.0474 14.1381C30.0317 14.2118 30.0161 14.2854 29.9999 14.3613C29.9366 14.6582 29.8733 14.9552 29.8101 15.2521C29.6995 15.771 29.5886 16.2898 29.4775 16.8086C29.4616 16.8829 29.4457 16.9571 29.4293 17.0336C29.3969 17.1847 29.3645 17.3359 29.3322 17.487C29.0494 18.8072 28.7682 20.1277 28.4883 21.4484C28.4174 21.7828 28.3464 22.1172 28.2753 22.4515C28.2604 22.5218 28.2604 22.5218 28.2451 22.5936C28.1951 22.8288 28.1451 23.0641 28.0951 23.2993C27.9877 23.8045 27.8806 24.3098 27.7739 24.8151C27.7012 25.1596 27.628 25.5041 27.5546 25.8485C27.5122 26.0477 27.47 26.2469 27.4281 26.4462C27.3823 26.664 27.3359 26.8815 27.2893 27.0991C27.2763 27.1617 27.2633 27.2243 27.2499 27.2889C27.1112 27.9306 26.9315 28.7248 26.3875 29.1508C25.9863 29.3905 25.6053 29.4286 25.1507 29.3457C24.512 29.1713 24.0213 28.7655 23.5001 28.3752C23.4027 28.3034 23.3052 28.2317 23.2076 28.1601C23.008 28.0136 22.8087 27.8665 22.6097 27.7192C22.3247 27.5086 22.0377 27.3009 21.7501 27.094C21.113 26.6352 20.4817 26.1687 19.8504 25.702C19.7011 25.5917 19.5518 25.4815 19.4024 25.3713C19.3537 25.3354 19.305 25.2994 19.2549 25.2624C18.9086 25.0073 18.5602 24.7552 18.211 24.5041C17.843 24.2395 17.4784 23.9718 17.1251 23.6877C16.8968 23.8145 16.7222 23.9513 16.5399 24.1379C16.4896 24.1889 16.4392 24.2399 16.3874 24.2924C16.3356 24.3455 16.2839 24.3986 16.2305 24.4533C15.9104 24.7803 15.5899 25.099 15.2425 25.3969C15.0482 25.5679 14.8686 25.7528 14.6876 25.9377C14.422 26.2064 14.1552 26.467 13.8656 26.7099C13.7272 26.833 13.6035 26.9669 13.4766 27.1018C13.1879 27.392 12.8501 27.6779 12.4227 27.6924C12.3725 27.6919 12.3223 27.6913 12.2706 27.6907C12.1946 27.6901 12.1946 27.6901 12.1171 27.6894C12.0785 27.6888 12.0399 27.6883 12.0001 27.6877C12.056 26.402 12.1242 25.1174 12.2065 23.8331C12.2291 23.4793 12.2505 23.1255 12.2694 22.7715C12.288 22.4248 12.3094 22.0785 12.3329 21.7321C12.3412 21.6013 12.3486 21.4704 12.3549 21.3395C12.4109 20.1959 12.4109 20.1959 12.8027 19.8399C12.9087 19.7662 13.0162 19.6946 13.1251 19.6252C13.2307 19.5331 13.3351 19.4395 13.4376 19.344C14.0626 18.7815 14.0626 18.7815 14.2183 18.6413C14.3242 18.546 14.43 18.4506 14.5357 18.3552C14.7698 18.144 15.0041 17.9334 15.2423 17.7268C15.4902 17.5109 15.7319 17.2883 15.9737 17.0657C16.1854 16.8711 16.4 16.6807 16.6173 16.4924C16.7887 16.3411 16.9569 16.1863 17.1251 16.0315C17.3725 15.8037 17.6221 15.579 17.8761 15.3586C18.1284 15.138 18.3763 14.9123 18.6251 14.6877C18.7292 14.5939 18.8334 14.5002 18.9376 14.4065C18.9891 14.36 19.0407 14.3136 19.0938 14.2658C19.5626 13.844 19.5626 13.844 19.7183 13.7038C19.8242 13.6085 19.93 13.5131 20.0357 13.4177C20.2698 13.2065 20.5042 12.9959 20.7423 12.7893C20.9902 12.5734 21.2319 12.3508 21.4737 12.1282C21.6854 11.9336 21.9 11.7432 22.1173 11.5549C22.2887 11.4036 22.4569 11.2488 22.6251 11.094C22.8725 10.8662 23.1221 10.6415 23.3761 10.4211C23.6284 10.2005 23.8763 9.9748 24.1251 9.7502C24.2292 9.65643 24.3334 9.56268 24.4376 9.46895C24.4891 9.42254 24.5407 9.37614 24.5938 9.32833C24.7501 9.1877 24.9063 9.04708 25.0626 8.90645C25.1137 8.86037 25.1649 8.81428 25.2176 8.7668C25.3257 8.66962 25.4339 8.57262 25.5423 8.47579C25.6955 8.33872 25.848 8.20102 26.0001 8.0627C26.0359 8.03031 26.0718 7.99793 26.1087 7.96456C26.2038 7.87766 26.2038 7.87766 26.3126 7.7502C26.3126 7.68833 26.3126 7.62645 26.3126 7.5627C25.9294 7.44169 25.6584 7.58869 25.3126 7.7502C25.1205 7.85629 24.9373 7.97344 24.754 8.09395C24.6495 8.16126 24.545 8.22857 24.4405 8.29586C24.3617 8.34702 24.3617 8.34702 24.2812 8.39922C24.039 8.5559 23.7949 8.70968 23.5509 8.86348C23.5025 8.89403 23.4541 8.92458 23.4043 8.95606C22.8142 9.32866 22.2221 9.69795 21.6301 10.0675C21.3159 10.2637 21.0017 10.4601 20.6876 10.6565C20.5626 10.7346 20.4376 10.8127 20.3126 10.8908C20.2507 10.9295 20.1888 10.9682 20.1251 11.008C15.0626 14.1721 15.0626 14.1721 14.875 14.2893C14.7503 14.3673 14.6255 14.4453 14.5008 14.5232C14.1844 14.721 13.868 14.9186 13.5516 15.1162C12.9815 15.4721 12.4117 15.8284 11.8438 16.1877C11.526 16.3888 11.2079 16.5893 10.8892 16.789C10.8268 16.8282 10.7644 16.8674 10.7002 16.9078C10.572 16.9876 10.4433 17.0665 10.314 17.1445C9.95035 17.3653 9.62084 17.5937 9.30572 17.8804C8.656 18.3353 8.656 18.3353 8.22845 18.2911C7.98711 18.2283 7.75341 18.1511 7.51863 18.0678C7.42879 18.038 7.33886 18.0084 7.24885 17.9791C7.05687 17.9163 6.86533 17.8523 6.674 17.7875C6.21993 17.6346 5.76145 17.496 5.30348 17.3554C5.04201 17.2749 4.78087 17.1933 4.51973 17.1118C4.41467 17.079 4.30962 17.0462 4.20456 17.0134C4.15233 16.9971 4.10009 16.9808 4.04628 16.964C3.83079 16.8968 3.61526 16.8297 3.39973 16.7626C3.18882 16.6969 2.97793 16.6311 2.76705 16.5654C2.66807 16.5345 2.56908 16.5036 2.47009 16.4728C2.16734 16.3785 1.86483 16.2836 1.56258 16.1877C1.45379 16.1533 1.45379 16.1533 1.34281 16.1182C1.27703 16.097 1.21124 16.0757 1.14346 16.0538C1.08739 16.0357 1.03132 16.0177 0.973554 15.9991C0.600657 15.8569 0.20905 15.6649 7.56234e-05 15.3127C-0.0595134 15.0162 -0.048899 14.718 0.113357 14.4572C0.563238 13.9424 1.23664 13.6967 1.85945 13.4611C1.94739 13.4272 2.03532 13.3933 2.12321 13.3593C2.37763 13.2611 2.63244 13.1639 2.88732 13.067C3.14182 12.97 3.39613 12.8725 3.65045 12.7751C4.30857 12.5231 4.96697 12.2718 5.62556 12.021C6.40702 11.7233 7.18802 11.4245 7.96883 11.1252C8.7358 10.8312 9.50291 10.5376 10.2703 10.2448C10.3412 10.2178 10.412 10.1908 10.4849 10.163C10.6294 10.1078 10.774 10.0527 10.9185 9.99755C12.113 9.54181 13.307 9.08464 14.5001 8.6252C15.6205 8.19375 16.7416 7.76413 17.8634 7.33614C17.9353 7.30868 18.0073 7.28121 18.0815 7.25292C18.2259 7.19782 18.3702 7.14273 18.5146 7.08764C18.5854 7.06064 18.6562 7.03364 18.7291 7.00582C18.7994 6.97898 18.8697 6.95215 18.9422 6.92451C19.6426 6.65721 20.3429 6.38941 21.043 6.12129C21.1023 6.09859 21.1616 6.07589 21.2227 6.0525C21.9139 5.78781 22.6048 5.52253 23.2955 5.25655C23.3626 5.23069 23.4298 5.20483 23.499 5.17819C23.5664 5.15222 23.6339 5.12625 23.7034 5.09949C23.771 5.07342 23.8387 5.04736 23.9085 5.0205C24.0445 4.96813 24.1805 4.91575 24.3165 4.86337C25.4919 4.41078 26.6688 3.96245 27.8468 3.51682C28.4438 3.29075 29.0394 3.06253 29.6306 2.82167C30.2697 2.57061 30.8922 2.50574 31.5001 2.8752Z" fill="#FAF6F0"/>
</g>
<defs>
<clipPath id="clip0_2024_4008">
<rect width="32" height="32" fill="white"/>
</clipPath>
</defs>
</svg>
