<svg width="32" height="32" viewBox="0 0 32 32" fill="none" xmlns="http://www.w3.org/2000/svg">
<path d="M25.4288 5.03805C25.6351 5.22036 25.836 5.40764 26.0337 5.59915C26.1229 5.68549 26.2131 5.77079 26.3034 5.85608C26.7498 6.28736 27.13 6.75337 27.4999 7.24987C27.5404 7.30392 27.5404 7.30392 27.5817 7.35907C29.8707 10.4313 30.826 14.2501 30.3104 18.0431C29.8425 21.2033 28.4043 23.9693 26.1874 26.2499C26.1406 26.2992 26.0938 26.3485 26.0455 26.3993C25.7218 26.7343 25.3647 27.0233 24.9999 27.3124C24.9403 27.3613 24.8806 27.4102 24.8192 27.4606C21.9749 29.7397 18.1709 30.7361 14.5685 30.3858C11.2422 30.0182 8.24539 28.6139 5.84739 26.2819C5.76274 26.1998 5.67694 26.1189 5.59095 26.0382C5.18102 25.6457 4.83947 25.203 4.49989 24.7499C4.47271 24.7137 4.44552 24.6774 4.41752 24.6401C2.11723 21.5521 1.16326 17.7127 1.68495 13.901C2.02236 11.6964 2.82705 9.56824 4.12489 7.74987C4.15143 7.71238 4.17798 7.67489 4.20533 7.63626C4.64453 7.01974 5.1225 6.45714 5.65034 5.91485C5.73888 5.82371 5.82625 5.73145 5.91346 5.63903C6.32386 5.21249 6.77685 4.85335 7.24989 4.49987C7.28601 4.47278 7.32214 4.44569 7.35935 4.41778C12.5125 0.578745 19.8533 0.603508 25.4288 5.03805ZM8.87489 5.49987C8.81188 5.54467 8.74888 5.58946 8.68397 5.63562C7.5871 6.43904 6.62139 7.34285 5.81239 8.43737C5.77275 8.49055 5.73311 8.54372 5.69227 8.59851C3.66676 11.4045 2.95524 14.8545 3.49989 18.2499C3.79538 19.8852 4.4066 21.5784 5.37489 22.9374C5.42717 23.0127 5.47941 23.0881 5.53163 23.1634C5.58735 23.2431 5.64318 23.3227 5.69911 23.4022C5.72513 23.4392 5.75116 23.4763 5.77798 23.5144C5.92143 23.7147 6.06996 23.894 6.24989 24.0624C6.25601 23.9989 6.26213 23.9354 6.26844 23.87C6.38445 22.7617 6.70113 21.9455 7.57118 21.202C8.94539 20.1282 10.6333 19.1956 12.2721 18.6099C12.774 18.4249 13.1744 18.1607 13.4374 17.6874C13.5767 17.2695 13.5056 16.968 13.3272 16.5832C13.2054 16.3536 13.052 16.1558 12.8905 15.953C11.4263 14.0523 10.5848 11.7444 10.8565 9.32406C11.038 7.97167 11.5587 6.7079 12.6249 5.81237C13.9244 4.84867 15.5042 4.56905 17.0905 4.78088C18.4426 5.03096 19.5693 5.71439 20.3607 6.84582C20.5925 7.21368 20.7554 7.58993 20.8944 7.99987C20.9171 8.06651 20.9171 8.06651 20.9403 8.13449C21.1651 8.83647 21.2101 9.5319 21.2069 10.2655C21.2068 10.3083 21.2066 10.3511 21.2064 10.3953C21.196 12.257 20.5686 14.0248 19.4374 15.4999C18.7073 16.4616 18.7073 16.4616 18.5624 17.6249C18.6828 18.0473 18.9413 18.284 19.3124 18.4999C19.8089 18.7589 20.3227 18.968 20.8436 19.1717C22.5166 19.8296 24.5527 20.6872 25.4218 22.3734C25.6419 22.9058 25.7117 23.4908 25.7499 24.0624C27.5009 22.4622 28.3424 19.6508 28.6249 17.3749C28.6372 17.2777 28.6372 17.2777 28.6498 17.1786C28.6689 16.9937 28.68 16.8106 28.6874 16.6249C28.6899 16.5621 28.6899 16.5621 28.6925 16.4981C28.7853 13.8311 28.0543 11.0623 26.4999 8.87487C26.4558 8.8126 26.4117 8.75032 26.3663 8.68615C24.2576 5.7975 21.2452 3.96817 17.7152 3.41223C14.6858 2.97595 11.3774 3.72059 8.87489 5.49987Z" fill="#FAF6F0"/>
</svg>
