<?xml version="1.0" encoding="UTF-8"?>
<svg version="1.1" xmlns="http://www.w3.org/2000/svg" width="512" height="512">
<path d="M0 0 C3.3001711 2.91691952 6.51458585 5.91338117 9.67822266 8.97753906 C11.10551359 10.35895791 12.54870738 11.72388538 13.9921875 13.08837891 C21.13454901 19.98896796 27.21863096 27.44504085 33.13671875 35.38916016 C33.78471436 36.25395996 33.78471436 36.25395996 34.44580078 37.13623047 C71.06981131 86.29206423 86.35441707 147.39285667 78.10546875 208.08056641 C70.61797154 258.64437761 47.60764721 302.89942325 12.13671875 339.38916016 C11.38777344 340.17806641 10.63882812 340.96697266 9.8671875 341.77978516 C4.68655041 347.13979258 -1.02675896 351.76471988 -6.86328125 356.38916016 C-7.8171875 357.17162109 -8.77109375 357.95408203 -9.75390625 358.76025391 C-55.26284941 395.22575323 -116.12676076 411.16816756 -173.76611328 405.56469727 C-226.9868573 399.68248778 -274.93525622 377.21340207 -313.30322266 339.90234375 C-314.65766712 338.58859621 -316.0303997 337.29375405 -317.40625 336.00244141 C-323.9652078 329.7220942 -329.42999951 322.63870482 -334.86328125 315.38916016 C-335.29817871 314.80972656 -335.73307617 314.23029297 -336.18115234 313.63330078 C-372.98586009 264.22538823 -388.24938099 202.79405476 -379.90234375 141.80712891 C-374.50375535 106.53384703 -361.62862201 72.48304587 -340.86328125 43.38916016 C-340.43853516 42.7892627 -340.01378906 42.18936523 -339.57617188 41.57128906 C-332.54897052 31.70694189 -324.90141179 22.70541335 -316.45605469 14.02880859 C-315.03947745 12.57054178 -313.6414121 11.09434359 -312.24609375 9.61572266 C-305.6797807 2.79106286 -298.43193326 -2.95527846 -290.86328125 -8.61083984 C-290.28529785 -9.04428711 -289.70731445 -9.47773437 -289.11181641 -9.92431641 C-206.66129467 -71.34890729 -89.2093643 -70.95270592 0 0 Z M-264.86328125 7.38916016 C-265.87132812 8.10587891 -266.879375 8.82259766 -267.91796875 9.56103516 C-285.46791936 22.41580418 -300.91931825 36.87673962 -313.86328125 54.38916016 C-314.4975 55.23994141 -315.13171875 56.09072266 -315.78515625 56.96728516 C-348.1933156 101.86299215 -359.57765606 157.06247233 -350.86328125 211.38916016 C-346.13542875 237.5543833 -336.35585655 264.64636134 -320.86328125 286.38916016 C-320.02681169 287.59452027 -319.19091836 288.80028038 -318.35546875 290.00634766 C-317.4638438 291.2809089 -316.5706231 292.55435537 -315.67578125 293.82666016 C-315.2593335 294.41906494 -314.84288574 295.01146973 -314.41381836 295.62182617 C-312.11866637 298.82565786 -309.74206202 301.69568021 -306.86328125 304.38916016 C-306.7653125 303.37337891 -306.66734375 302.35759766 -306.56640625 301.31103516 C-304.71024554 283.57799394 -299.64344487 270.5194818 -285.72265625 258.62353516 C-263.7352175 241.44209395 -236.72928011 226.5214177 -210.50756836 217.14990234 C-202.47672297 214.18923775 -196.07104307 209.96313143 -191.86328125 202.38916016 C-189.63459775 195.70310966 -190.77128017 190.87904756 -193.6262207 184.72167969 C-195.57456644 181.04800786 -198.02966108 177.88385901 -200.61328125 174.63916016 C-224.04051746 144.22784807 -237.5044212 107.30129102 -233.15673828 68.57617188 C-230.25327868 46.93790975 -221.92221884 26.71754173 -204.86328125 12.38916016 C-184.07115806 -3.03007493 -158.79507916 -7.50404402 -133.4140625 -4.11474609 C-111.77994722 -0.11345204 -93.75347792 10.8214561 -81.08984375 28.92431641 C-77.38191054 34.81005318 -74.775079 40.83006818 -72.55078125 47.38916016 C-72.18714478 48.45529541 -72.18714478 48.45529541 -71.81616211 49.54296875 C-68.22001687 60.77473005 -67.49973587 71.90159872 -67.55078125 83.63916016 C-67.55326874 84.3243573 -67.55575623 85.00955444 -67.55831909 85.71551514 C-67.72552637 115.50273246 -77.76376762 143.78745284 -95.86328125 167.38916016 C-107.54524447 182.77601377 -107.54524447 182.77601377 -109.86328125 201.38916016 C-107.93724081 208.14870337 -103.79991317 211.93594373 -97.86328125 215.38916016 C-89.91836117 219.5339078 -81.69895686 222.87851733 -73.36328125 226.13916016 C-46.59524232 236.66405472 -14.01858355 250.3864133 -0.11328125 277.36572266 C3.40841668 285.88382953 4.52567631 295.24459402 5.13671875 304.38916016 C33.1532301 278.78605615 46.61630013 233.80464405 51.13671875 197.38916016 C51.33394531 195.83455078 51.33394531 195.83455078 51.53515625 194.24853516 C51.84084324 191.29080697 52.01815113 188.36053661 52.13671875 185.38916016 C52.17756592 184.3848999 52.17756592 184.3848999 52.21923828 183.36035156 C53.7029018 140.68869587 42.0072827 96.387197 17.13671875 61.38916016 C16.43160156 60.39271484 15.72648437 59.39626953 15 58.36962891 C-18.74010736 12.15113355 -66.93818586 -17.11804959 -123.41796875 -26.01318359 C-171.88910472 -32.99365463 -224.82302689 -21.07935829 -264.86328125 7.38916016 Z " fill="#000000" transform="translate(406.86328125,80.61083984375)"/>
</svg>
