<svg width="32" height="32" viewBox="0 0 32 32" fill="none" xmlns="http://www.w3.org/2000/svg">
<g clip-path="url(#clip0_2024_4012)">
<path d="M15.2372 -0.0125675C15.2935 -0.0130059 15.3498 -0.0134443 15.4077 -0.013896C15.5883 -0.0149834 15.7688 -0.0153867 15.9493 -0.0154972C16.0111 -0.0155394 16.0728 -0.0155816 16.1363 -0.015625C17.0419 -0.0146409 17.9216 0.0130652 18.8126 0.187628C18.8697 0.198021 18.9268 0.208414 18.9855 0.219122C21.2403 0.633961 23.3828 1.54724 25.2501 2.87513C25.29 2.90321 25.3299 2.93128 25.3711 2.96021C26.0504 3.44133 26.6553 3.98148 27.2501 4.56263C27.32 4.63001 27.3899 4.69739 27.4598 4.76478C27.8587 5.15274 28.2198 5.56155 28.5626 6.00013C28.6105 6.0587 28.6583 6.11727 28.7076 6.17762C30.3223 8.19465 31.3518 10.6575 31.8126 13.1876C31.8229 13.2399 31.8331 13.2921 31.8436 13.3459C32.1744 15.0785 32.1501 17.0838 31.8126 18.8126C31.8026 18.8687 31.7925 18.9248 31.7821 18.9825C31.3362 21.4468 30.289 23.7766 28.7501 25.7501C28.7081 25.8054 28.666 25.8607 28.6227 25.9176C27.8662 26.892 26.9725 27.8053 26.0001 28.5626C25.9416 28.6104 25.8831 28.6582 25.8229 28.7074C23.8061 30.3224 21.3426 31.3518 18.8126 31.8126C18.7604 31.8229 18.7082 31.8331 18.6544 31.8436C16.9289 32.1731 14.9085 32.1604 13.1876 31.8126C13.1299 31.8012 13.0722 31.7898 13.0128 31.7781C12.2653 31.6271 11.5334 31.4366 10.8126 31.1876C10.7658 31.1717 10.7191 31.1557 10.6709 31.1393C9.95902 30.8946 9.28926 30.6036 8.62513 30.2501C8.5501 30.2108 8.47507 30.1715 8.40003 30.1322C8.10412 29.9754 7.81954 29.8199 7.547 29.6251C7.27876 29.4586 7.04911 29.5007 6.75013 29.5626C6.43458 29.6496 6.12445 29.7513 5.81385 29.8541C5.72268 29.8839 5.63149 29.9136 5.54028 29.9432C5.30054 30.0213 5.061 30.1 4.82151 30.1788C4.58254 30.2574 4.3434 30.3354 4.10425 30.4135C3.82608 30.5043 3.54791 30.5951 3.2698 30.6862C2.74176 30.859 2.21356 31.0313 1.68445 31.2008C1.62828 31.2189 1.5721 31.2371 1.51422 31.2558C1.13983 31.3751 1.13983 31.3751 1.00013 31.3751C1.1393 30.8316 1.31226 30.3021 1.49354 29.7714C1.52322 29.684 1.55288 29.5966 1.58252 29.5092C1.66018 29.2803 1.73808 29.0515 1.81604 28.8228C1.89418 28.5934 1.97211 28.364 2.05005 28.1345C2.06524 28.0898 2.08043 28.0452 2.09607 27.9991C2.17089 27.779 2.24563 27.5588 2.32023 27.3385C2.34867 27.2546 2.37711 27.1707 2.40555 27.0868C2.41917 27.0466 2.43278 27.0064 2.4468 26.965C2.52735 26.7278 2.60921 26.491 2.69211 26.2546C2.71039 26.2018 2.72866 26.149 2.74748 26.0946C2.77958 26.002 2.81218 25.9095 2.8454 25.8172C2.91775 25.6067 2.96669 25.4591 2.87513 25.2501C2.81468 25.1379 2.81468 25.1379 2.73841 25.0284C2.69651 24.9655 2.69651 24.9655 2.65377 24.9013C2.62369 24.8565 2.59362 24.8118 2.56263 24.7658C1.02143 22.4225 0.00217641 19.5967 -0.0125675 16.7692C-0.0130059 16.7128 -0.0134443 16.6564 -0.013896 16.5983C-0.0149852 16.4172 -0.0153868 16.236 -0.0154972 16.0548C-0.0155394 15.9929 -0.0155816 15.9311 -0.015625 15.8673C-0.0146415 14.9605 0.0134418 14.08 0.187628 13.1876C0.202719 13.1035 0.202719 13.1035 0.218115 13.0177C0.663923 10.554 1.71069 8.22279 3.25013 6.25013C3.29291 6.19413 3.33569 6.13814 3.37977 6.08045C3.70901 5.65771 4.06823 5.26279 4.43763 4.87513C4.47336 4.8376 4.50909 4.80008 4.5459 4.76142C5.04642 4.23962 5.56043 3.76179 6.14155 3.33121C6.24911 3.25089 6.3549 3.16862 6.46058 3.08582C7.51577 2.27093 8.7023 1.6218 9.93763 1.12513C9.99155 1.10341 10.0455 1.08168 10.101 1.0593C11.7279 0.41454 13.4807 -0.00335221 15.2372 -0.0125675ZM8.75013 7.62513C8.68704 7.66054 8.68704 7.66054 8.62269 7.69666C7.56328 8.3952 7.02683 9.66729 6.77649 10.8597C6.51034 12.9077 7.3395 14.7985 8.50013 16.4376C8.54768 16.5051 8.54768 16.5051 8.5962 16.5739C9.20959 17.4416 9.8431 18.2799 10.5626 19.0626C10.6358 19.1457 10.7088 19.229 10.7814 19.3126C10.8543 19.396 10.9272 19.4793 11.0001 19.5626C11.0445 19.6136 11.0889 19.6646 11.1346 19.7172C11.3845 20.0003 11.6364 20.2641 11.9254 20.5072C12.0895 20.6482 12.2452 20.7969 12.4025 20.9454C14.6649 23.0408 18.2676 24.9868 21.4208 24.9511C22.6994 24.867 24.0094 24.2607 24.8751 23.3126C25.4399 22.5769 25.6302 21.6289 25.6478 20.7194C25.6179 20.5125 25.5702 20.4138 25.4376 20.2501C25.2728 20.1366 25.0974 20.0494 24.9181 19.9611C24.8657 19.9344 24.8133 19.9078 24.7594 19.8804C24.6473 19.8236 24.5351 19.7672 24.4227 19.7112C24.2527 19.6264 24.0834 19.5402 23.9142 19.4537C23.3255 19.1541 22.7319 18.8648 22.1329 18.5861C22.0769 18.5594 22.0208 18.5328 21.9631 18.5054C21.5867 18.3329 21.2275 18.1838 20.8126 18.3048C20.3696 18.6186 20.0677 19.0729 19.7548 19.5094C19.6185 19.6967 19.4794 19.8807 19.3361 20.0626C19.271 20.1458 19.271 20.1458 19.2047 20.2306C18.9685 20.4709 18.7762 20.5552 18.4403 20.5834C16.6511 20.5075 14.5902 18.6218 13.4191 17.4288C13.203 17.1929 13.0078 16.9409 12.8126 16.6876C12.7674 16.6295 12.7222 16.5715 12.6757 16.5116C11.5167 14.9979 11.5167 14.9979 11.536 14.4454C11.6244 14.0043 12.0756 13.6618 12.3719 13.3447C12.7005 12.9889 13.0398 12.6125 13.0778 12.113C13.0606 11.8432 12.9856 11.6273 12.8817 11.3815C12.8628 11.335 12.8438 11.2884 12.8243 11.2405C12.7626 11.0897 12.6998 10.9395 12.6368 10.7892C12.5939 10.6852 12.551 10.5812 12.5081 10.4771C12.3818 10.1717 12.2538 9.86705 12.1251 9.56263C12.107 9.51961 12.0888 9.4766 12.0701 9.43228C11.9622 9.17697 11.8528 8.92231 11.7423 8.6681C11.7158 8.6068 11.6893 8.5455 11.662 8.48234C11.4177 7.87761 11.4177 7.87761 10.9909 7.40784C10.2809 7.27753 9.38799 7.26014 8.75013 7.62513Z" fill="#FAF6F0"/>
</g>
<defs>
<clipPath id="clip0_2024_4012">
<rect width="32" height="32" fill="white"/>
</clipPath>
</defs>
</svg>
