<svg width="32" height="32" viewBox="0 0 32 32" fill="none" xmlns="http://www.w3.org/2000/svg">
<g clip-path="url(#clip0_2024_4014)">
<path d="M15.9768 -0.019294C16.0404 -0.0191593 16.104 -0.0190246 16.1696 -0.0188858C17.0827 -0.0157814 17.9784 -0.000100344 18.8752 0.187737C18.9362 0.200155 18.9971 0.212572 19.0599 0.225365C22.0837 0.857904 24.833 2.22769 27.0627 4.37524C27.1246 4.4345 27.1246 4.4345 27.1876 4.49496C27.7806 5.06649 28.3269 5.64757 28.8127 6.31274C28.8664 6.38468 28.92 6.45662 28.9736 6.52856C29.351 7.04051 29.6859 7.57262 30.0002 8.12524C30.023 8.16473 30.0458 8.20421 30.0693 8.2449C31.4196 10.6042 32.03 13.2771 32.0198 15.9768C32.0196 16.0404 32.0195 16.104 32.0194 16.1696C32.0163 17.0827 32.0006 17.9784 31.8127 18.8752C31.7941 18.9666 31.7941 18.9666 31.7751 19.0599C31.1426 22.0837 29.7728 24.833 27.6252 27.0627C27.5857 27.1039 27.5462 27.1452 27.5055 27.1876C26.934 27.7806 26.3529 28.3269 25.6877 28.8127C25.6158 28.8664 25.5439 28.92 25.4719 28.9736C24.9601 29.351 24.4286 29.6874 23.8752 30.0002C23.831 30.0254 23.7868 30.0505 23.7413 30.0764C22.2953 30.8905 20.7221 31.4373 19.0979 31.7698C19.053 31.779 19.008 31.7882 18.9617 31.7977C18.0445 31.972 17.1367 32.022 16.2048 32.02C16.0211 32.0198 15.8374 32.0212 15.6537 32.0228C14.8179 32.0256 14.0119 31.9503 13.1877 31.8127C13.0811 31.7951 13.0811 31.7951 12.9724 31.7771C10.2682 31.2914 7.70255 30.0422 5.62524 28.2502C5.57867 28.2106 5.5321 28.171 5.48412 28.1301C4.64006 27.3919 3.8481 26.595 3.18774 25.6877C3.13421 25.6159 3.08066 25.544 3.02709 25.4722C2.64959 24.9603 2.31313 24.4287 2.00024 23.8752C1.9751 23.831 1.94996 23.7868 1.92407 23.7413C1.10998 22.2953 0.563174 20.7221 0.230706 19.0979C0.221496 19.053 0.212287 19.008 0.202798 18.9617C0.0169316 17.9838 -0.0230755 17.0168 -0.019294 16.0237C-0.0191593 15.9601 -0.0190246 15.8964 -0.0188858 15.8309C-0.0157814 14.9178 -0.000100344 14.0221 0.187737 13.1252C0.200155 13.0643 0.212572 13.0034 0.225365 12.9406C0.857904 9.91674 2.22769 7.16747 4.37524 4.93774C4.41475 4.89653 4.45425 4.85532 4.49496 4.81286C5.06649 4.21984 5.64757 3.6736 6.31274 3.18774C6.38468 3.13411 6.45662 3.08048 6.52856 3.02685C7.04041 2.6495 7.57182 2.31308 8.12524 2.00024C8.16944 1.9751 8.21364 1.94996 8.25918 1.92407C9.70514 1.10998 11.2783 0.563174 12.9026 0.230706C12.9475 0.221496 12.9924 0.212287 13.0387 0.202798C14.0166 0.0169316 14.9837 -0.0230755 15.9768 -0.019294ZM8.25024 12.0627C8.21334 12.1895 8.21334 12.1895 8.21849 12.3254C8.21779 12.3774 8.21708 12.4293 8.21636 12.4828C8.21686 12.5393 8.21737 12.5958 8.21789 12.6539C8.21745 12.7138 8.21701 12.7737 8.21656 12.8354C8.21546 13.0337 8.21619 13.2319 8.21703 13.4302C8.21687 13.5683 8.21662 13.7064 8.21631 13.8445C8.21594 14.1344 8.21648 14.4243 8.21764 14.7141C8.21906 15.0843 8.21825 15.4544 8.21675 15.8245C8.21584 16.1101 8.21614 16.3956 8.21678 16.6811C8.21695 16.8175 8.21675 16.9538 8.21616 17.0902C8.21284 18.0828 8.25643 18.8591 8.9768 19.6055C9.40314 20.0012 9.91338 20.1949 10.4905 20.1965C10.5652 20.1969 10.6399 20.1972 10.7168 20.1976C10.7985 20.1977 10.8802 20.1977 10.9643 20.1978C11.0514 20.1981 11.1385 20.1984 11.2256 20.1987C11.4619 20.1996 11.6982 20.2 11.9345 20.2002C12.0821 20.2004 12.2297 20.2007 12.3773 20.201C12.8392 20.2018 13.301 20.2024 13.7629 20.2027C14.2961 20.2029 14.8293 20.204 15.3626 20.2059C15.7748 20.2072 16.187 20.2078 16.5992 20.2079C16.8454 20.208 17.0916 20.2084 17.3378 20.2095C17.5693 20.2105 17.8008 20.2106 18.0322 20.2101C18.1577 20.21 18.2832 20.2109 18.4087 20.2118C18.4833 20.2114 18.558 20.2111 18.6349 20.2107C18.6998 20.2108 18.7647 20.2109 18.8316 20.211C19.0277 20.184 19.1135 20.1427 19.2502 20.0002C19.2877 19.8781 19.2877 19.8781 19.2824 19.7407C19.2836 19.6615 19.2836 19.6615 19.2848 19.5807C19.2842 19.494 19.2842 19.494 19.2836 19.4056C19.2841 19.3446 19.2847 19.2836 19.2852 19.2208C19.2866 19.0184 19.2862 18.8161 19.2856 18.6138C19.286 18.4729 19.2864 18.332 19.2868 18.1912C19.2875 17.8953 19.2872 17.5995 19.2863 17.3036C19.2852 16.9259 19.2866 16.5484 19.2889 16.1707C19.2902 15.8794 19.2901 15.5881 19.2896 15.2968C19.2896 15.1576 19.29 15.0185 19.2909 14.8794C19.2965 13.89 19.2577 13.1372 18.5383 12.3877C18.0928 12.0122 17.5884 11.8059 17.0099 11.8035C16.9353 11.8031 16.8606 11.8026 16.7837 11.8022C16.702 11.802 16.6203 11.8018 16.5361 11.8017C16.4491 11.8013 16.362 11.8009 16.2749 11.8004C15.9893 11.7991 15.7038 11.7985 15.4182 11.7978C15.3198 11.7976 15.2215 11.7973 15.1231 11.7971C14.6613 11.7959 14.1994 11.795 13.7376 11.7945C13.2043 11.7939 12.6711 11.7922 12.1379 11.7897C11.7257 11.7878 11.3135 11.7869 10.9013 11.7867C10.655 11.7865 10.4089 11.786 10.1626 11.7844C9.93117 11.7829 9.69973 11.7827 9.46825 11.7833C9.34276 11.7834 9.21727 11.7822 9.09178 11.7809C9.01713 11.7814 8.94247 11.7818 8.86555 11.7823C8.76821 11.782 8.76821 11.782 8.66891 11.7818C8.45355 11.8213 8.38011 11.8888 8.25024 12.0627ZM23.2151 11.9597C23.149 12.0079 23.149 12.0079 23.0817 12.0571C23.0342 12.0925 22.9867 12.1279 22.9377 12.1643C22.8879 12.2008 22.8381 12.2374 22.7868 12.275C22.6285 12.3914 22.4706 12.5083 22.3127 12.6252C22.2139 12.698 22.115 12.7706 22.0161 12.8433C21.8201 12.9873 21.6243 13.1316 21.4287 13.2761C21.2155 13.4336 21.0021 13.5908 20.7886 13.7478C20.7064 13.8082 20.7064 13.8082 20.6225 13.8699C20.5167 13.9477 20.4109 14.0254 20.3051 14.1031C20.2342 14.1553 20.2342 14.1553 20.1619 14.2085C20.12 14.2393 20.0781 14.27 20.035 14.3017C19.9404 14.3698 19.9404 14.3698 19.8752 14.4377C19.8662 14.5328 19.8613 14.6283 19.8582 14.7238C19.8562 14.7847 19.8542 14.8457 19.8521 14.9084C19.8452 15.189 19.8401 15.4695 19.8362 15.7501C19.8336 15.8979 19.8298 16.0456 19.8247 16.1933C19.7624 17.0082 19.7624 17.0082 19.9989 17.7602C20.1601 17.8903 20.3128 17.9756 20.5002 18.0627C20.5901 18.1261 20.6786 18.1913 20.7656 18.2585C20.8528 18.321 20.9402 18.3834 21.0276 18.4455C21.4375 18.7393 21.8448 19.0363 22.2502 19.3362C22.3954 19.4431 22.5406 19.5499 22.6858 19.6567C22.7645 19.7147 22.843 19.7727 22.9213 19.831C23.0084 19.8958 23.0961 19.9598 23.1838 20.0237C23.2282 20.0564 23.2726 20.0891 23.3184 20.1228C23.4517 20.2076 23.4517 20.2076 23.6877 20.1877C23.7672 20.0288 23.7583 19.918 23.7586 19.7401C23.7589 19.6717 23.7591 19.6034 23.7594 19.5329C23.7594 19.4576 23.7593 19.3823 23.7593 19.3047C23.7595 19.2256 23.7597 19.1465 23.76 19.0651C23.7605 18.8479 23.7607 18.6307 23.7607 18.4135C23.7607 18.2324 23.761 18.0513 23.7612 17.8702C23.7617 17.443 23.7619 17.0159 23.7618 16.5888C23.7618 16.1476 23.7624 15.7065 23.7634 15.2653C23.7642 14.887 23.7646 14.5087 23.7645 14.1303C23.7645 13.9042 23.7647 13.678 23.7654 13.4518C23.7661 13.1998 23.7658 12.9478 23.7654 12.6958C23.7658 12.6205 23.7661 12.5451 23.7665 12.4675C23.7662 12.3992 23.766 12.3308 23.7657 12.2604C23.7657 12.2007 23.7658 12.1411 23.7658 12.0797C23.7639 11.9253 23.7639 11.9253 23.6252 11.8127C23.4147 11.8127 23.3785 11.8391 23.2151 11.9597Z" fill="#FAF6F0"/>
</g>
<defs>
<clipPath id="clip0_2024_4014">
<rect width="32" height="32" fill="white"/>
</clipPath>
</defs>
</svg>
