<?xml version="1.0" encoding="UTF-8"?>
<svg version="1.1" xmlns="http://www.w3.org/2000/svg" width="512" height="512">
<path d="M0 0 C1.01790619 0.00215515 2.03581238 0.0043103 3.08456421 0.00653076 C17.69363523 0.05620146 32.02575853 0.30709809 46.375 3.3125 C47.34985352 3.51117676 48.32470703 3.70985352 49.32910156 3.91455078 C97.7109774 14.03517194 141.69928269 35.9516877 177.375 70.3125 C178.3640332 71.26068604 178.3640332 71.26068604 179.37304688 72.22802734 C188.86130305 81.37247479 197.6012044 90.66984009 205.375 101.3125 C206.23306152 102.46355017 207.09113451 103.61459177 207.94921875 104.765625 C213.98736829 112.95680614 219.34595521 121.47054105 224.375 130.3125 C224.73948242 130.94430176 225.10396484 131.57610352 225.47949219 132.22705078 C247.08534998 169.97532572 256.85198095 212.74189997 256.6875 255.9375 C256.68534485 256.95540619 256.6831897 257.97331238 256.68096924 259.02206421 C256.63129854 273.63113523 256.38040191 287.96325853 253.375 302.3125 C253.07698486 303.77478027 253.07698486 303.77478027 252.77294922 305.26660156 C242.65232806 353.6484774 220.7358123 397.63678269 186.375 433.3125 C185.74287598 433.97185547 185.11075195 434.63121094 184.45947266 435.31054688 C175.31502521 444.79880305 166.01765991 453.5387044 155.375 461.3125 C154.22394983 462.17056152 153.07290823 463.02863451 151.921875 463.88671875 C143.73224019 469.92427396 135.22961724 475.30707302 126.375 480.3125 C125.66778809 480.7146875 124.96057617 481.116875 124.23193359 481.53125 C101.09654164 494.5566741 75.92537591 503.30551461 49.9375 508.625 C49.21860596 508.77235596 48.49971191 508.91971191 47.7590332 509.0715332 C33.08339502 511.86090125 18.55831162 512.66142619 3.64770508 512.62817383 C0.70811513 512.6250221 -2.2304558 512.64854926 -5.16992188 512.67382812 C-18.54306192 512.71848737 -31.43916711 511.51301542 -44.625 509.3125 C-46.33055054 509.03031616 -46.33055054 509.03031616 -48.07055664 508.74243164 C-91.33802759 500.97044532 -132.38793216 480.98345309 -165.625 452.3125 C-166.37007813 451.67828125 -167.11515625 451.0440625 -167.8828125 450.390625 C-181.38779833 438.57948485 -194.05918743 425.82889772 -204.625 411.3125 C-205.48149066 410.16255169 -206.33826433 409.01281411 -207.1953125 407.86328125 C-213.23534209 399.67315742 -218.61867614 391.16870382 -223.625 382.3125 C-224.0271875 381.60528809 -224.429375 380.89807617 -224.84375 380.16943359 C-237.8691741 357.03404164 -246.61801461 331.86287591 -251.9375 305.875 C-252.08485596 305.15610596 -252.23221191 304.43721191 -252.3840332 303.6965332 C-255.35789088 288.05024391 -255.99800362 272.57681954 -255.9375 256.6875 C-255.93534485 255.66959381 -255.9331897 254.65168762 -255.93096924 253.60293579 C-255.88129854 238.99386477 -255.63040191 224.66174147 -252.625 210.3125 C-252.42632324 209.33764648 -252.22764648 208.36279297 -252.02294922 207.35839844 C-241.90232806 158.9765226 -219.9858123 114.98821731 -185.625 79.3125 C-184.99287598 78.65314453 -184.36075195 77.99378906 -183.70947266 77.31445312 C-174.56502521 67.82619695 -165.26765991 59.0862956 -154.625 51.3125 C-153.47394983 50.45443848 -152.32290823 49.59636549 -151.171875 48.73828125 C-142.98224019 42.70072604 -134.47961724 37.31792698 -125.625 32.3125 C-124.91778809 31.9103125 -124.21057617 31.508125 -123.48193359 31.09375 C-100.34654164 18.0683259 -75.17537591 9.31948539 -49.1875 4 C-48.46860596 3.85264404 -47.74971191 3.70528809 -47.0090332 3.5534668 C-31.36274391 0.57960912 -15.88931954 -0.06050362 0 0 Z M-123.625 193.3125 C-124.21536541 195.34083786 -124.21536541 195.34083786 -124.13293457 197.5158844 C-124.14421387 198.3469017 -124.15549316 199.17791901 -124.16711426 200.03411865 C-124.15901733 200.93752991 -124.15092041 201.84094116 -124.14257812 202.77172852 C-124.1495874 203.73000046 -124.15659668 204.6882724 -124.16381836 205.67558289 C-124.18143995 208.84781789 -124.16975402 212.01916191 -124.15625 215.19140625 C-124.15894526 217.40136384 -124.16282796 219.61132027 -124.16784668 221.8212738 C-124.17374868 226.45917013 -124.16516171 231.09675859 -124.14648438 235.73461914 C-124.12378802 241.65705166 -124.13675457 247.57875535 -124.16077423 253.50116062 C-124.17529293 258.06962985 -124.17059682 262.63792912 -124.16026306 267.20640373 C-124.15760767 269.38831609 -124.16082339 271.57024423 -124.17018127 273.75213814 C-124.22330593 289.63273084 -123.52593948 302.05455549 -112 313.99609375 C-105.17850717 320.32808131 -97.01477015 323.4264843 -87.7800293 323.45294189 C-86.5855014 323.45865204 -85.39097351 323.46436218 -84.1602478 323.47024536 C-82.85310822 323.47136322 -81.54596863 323.47248108 -80.19921875 323.47363281 C-78.80612049 323.47826301 -77.4130235 323.48328795 -76.01992798 323.48867798 C-72.23902559 323.50178065 -68.45814093 323.50824225 -64.67721939 323.51268864 C-62.31527722 323.51562155 -59.95333988 323.51972668 -57.59140015 323.52419281 C-50.20173191 323.53785935 -42.81207475 323.54753131 -35.42239475 323.5513947 C-26.89072876 323.55587978 -18.35922262 323.57345196 -9.82760525 323.6023953 C-3.23218424 323.6239944 3.36319172 323.63409796 9.95864773 323.63543582 C13.89800096 323.63648471 17.83720375 323.6424108 21.77651978 323.66025543 C25.48000599 323.6767066 29.18322814 323.67890619 32.88673782 323.67011642 C34.89459396 323.66897633 36.90244123 323.68271471 38.9102478 323.6968689 C40.1047757 323.69129974 41.29930359 323.68573059 42.5300293 323.67999268 C43.56830368 323.68145924 44.60657806 323.6829258 45.67631531 323.6844368 C48.81431922 323.25195236 50.18710175 322.59188108 52.375 320.3125 C52.9739706 318.35773599 52.9739706 318.35773599 52.8896637 316.16017151 C52.90875038 314.89263283 52.90875038 314.89263283 52.92822266 313.5994873 C52.91843384 312.21328186 52.91843384 312.21328186 52.90844727 310.79907227 C52.91706284 309.8230455 52.92567841 308.84701874 52.93455505 307.84141541 C52.95731668 304.60364484 52.95045214 301.36673357 52.94140625 298.12890625 C52.94664093 295.87507368 52.95291684 293.6212433 52.96018982 291.36741638 C52.9706156 286.63359304 52.96600662 281.9000698 52.95141602 277.16625977 C52.93431017 271.12384666 52.95761091 265.08239177 52.99290562 259.04008579 C53.01497097 254.37891939 53.01341459 249.71797845 53.0051403 245.05677605 C53.00432414 242.83102309 53.01112301 240.60525301 53.02591133 238.37954903 C53.11489237 222.54859282 52.49398535 210.50411477 40.984375 198.51171875 C33.85614373 192.503943 25.78607318 189.20342636 16.5300293 189.16532898 C15.3355014 189.15817368 14.14097351 189.15101837 12.9102478 189.14364624 C11.60310822 189.14095734 10.29596863 189.13826843 8.94921875 189.13549805 C7.55612011 189.1292304 6.16302314 189.12258333 4.76992798 189.11558533 C0.20079707 189.09458859 -4.36833403 189.08419105 -8.9375 189.07421875 C-10.51120013 189.07017037 -12.08490008 189.06605342 -13.65859985 189.06186867 C-21.04826503 189.04283124 -28.43792027 189.0285939 -35.82760525 189.0202567 C-44.35931833 189.01047172 -52.89077283 188.98411354 -61.42239475 188.94375581 C-68.01781468 188.91362602 -74.6131603 188.89879105 -81.20864773 188.89547569 C-85.14805524 188.89312274 -89.08718603 188.88413008 -93.02651978 188.85901451 C-96.73006113 188.83578158 -100.43314256 188.83148088 -104.13673782 188.84177589 C-106.14461444 188.84250935 -108.15246746 188.82338732 -110.1602478 188.80371094 C-111.3547757 188.81065475 -112.54930359 188.81759857 -113.7800293 188.82475281 C-115.33744087 188.82117028 -115.33744087 188.82117028 -116.92631531 188.81751537 C-120.3720706 189.44952544 -121.54705205 190.52904219 -123.625 193.3125 Z M115.8125 191.6640625 C114.75591187 192.43544556 114.75591187 192.43544556 113.67797852 193.22241211 C112.91799561 193.78839111 112.1580127 194.35437012 111.375 194.9375 C110.57827881 195.52217041 109.78155762 196.10684082 108.96069336 196.70922852 C106.42731301 198.57054318 103.90114008 200.44137524 101.375 202.3125 C99.79350924 203.47599544 98.21148948 204.63877223 96.62890625 205.80078125 C93.49287158 208.10503962 90.36017154 210.41371149 87.23046875 212.7265625 C83.81989907 215.24696302 80.40544822 217.76198864 76.98828125 220.2734375 C75.67331665 221.24035522 75.67331665 221.24035522 74.33178711 222.22680664 C72.63902083 223.47137003 70.9458387 224.71536805 69.25219727 225.95874023 C68.11802368 226.79320679 68.11802368 226.79320679 66.9609375 227.64453125 C66.2911084 228.13671143 65.6212793 228.6288916 64.93115234 229.13598633 C63.41689394 230.22473788 63.41689394 230.22473788 62.375 231.3125 C62.22977842 232.83375247 62.15229832 234.3615501 62.1027832 235.88891602 C62.07058182 236.86405655 62.03838043 237.83919708 62.00520325 238.84388733 C61.89457487 243.33259371 61.81207807 247.82115063 61.75024414 252.31079102 C61.70862769 254.67483208 61.64730318 257.0386135 61.56567383 259.40161133 C60.56992733 272.4406575 60.56992733 272.4406575 64.35327148 284.47167969 C66.93257421 286.55338769 69.37640653 287.91863621 72.375 289.3125 C73.81249655 290.32608874 75.22954845 291.36950575 76.62109375 292.4453125 C78.01651703 293.44510232 79.41369648 294.44244496 80.8125 295.4375 C87.371735 300.13679899 93.88796677 304.88904871 100.375 309.6875 C102.69724036 311.39827949 105.02043884 313.10774526 107.34423828 314.81640625 C108.60244927 315.74334986 109.85897501 316.67259155 111.11279297 317.60546875 C112.50632027 318.64144337 113.90890614 319.6652055 115.3125 320.6875 C116.02277344 321.21085938 116.73304688 321.73421875 117.46484375 322.2734375 C119.59821674 323.63106327 119.59821674 323.63106327 123.375 323.3125 C124.64614084 320.77021831 124.50371284 318.9970992 124.50871277 316.15014648 C124.51297775 315.05644745 124.51724274 313.96274841 124.52163696 312.83590698 C124.52118378 311.63064362 124.52073059 310.42538025 124.52026367 309.18359375 C124.52362228 307.91855011 124.5269809 306.65350647 124.53044128 305.35012817 C124.53929017 301.87501172 124.54161974 298.39991987 124.54225707 294.92479324 C124.54320535 292.026986 124.54688262 289.12918453 124.55042917 286.23137951 C124.55857671 279.39741411 124.56101309 272.56346189 124.56030273 265.72949219 C124.5597015 258.67102773 124.57026168 251.61263959 124.5860464 244.55419445 C124.59910329 238.50066612 124.60448743 232.4471628 124.60384732 226.39362049 C124.60359184 222.77515291 124.60647093 219.15675316 124.61702538 215.53829956 C124.62846579 211.5059483 124.62397095 207.47376916 124.61791992 203.44140625 C124.62353943 202.23614288 124.62915894 201.03087952 124.63494873 199.78909302 C124.63075424 198.69539398 124.62655975 197.60169495 124.62223816 196.47485352 C124.62278293 195.52063004 124.62332769 194.56640656 124.62388897 193.58326721 C124.59285413 191.11311696 124.59285413 191.11311696 122.375 189.3125 C119.00585929 189.3125 118.42723052 189.73508463 115.8125 191.6640625 Z " fill="#000000" transform="translate(255.625,-0.3125)"/>
</svg>
